<svg width="444" height="73" viewBox="0 0 444 73" fill="none" xmlns="http://www.w3.org/2000/svg">
<path d="M21.6814 72.96C19.6974 72.96 17.7454 72.672 15.8254 72.096C13.9694 71.52 12.1774 70.72 10.4494 69.696C8.78537 68.672 7.21737 67.488 5.74537 66.144C4.33737 64.736 3.15337 63.232 2.19337 61.632V72H0.273366V1.92H2.19337V33.792C4.75337 30.208 7.69737 27.264 11.0254 24.96C14.3534 22.592 18.1934 21.408 22.5454 21.408C26.1934 21.408 29.4574 22.176 32.3374 23.712C35.2174 25.248 37.6174 27.264 39.5374 29.76C41.5214 32.192 43.0254 34.944 44.0494 38.016C45.1374 41.088 45.6814 44.16 45.6814 47.232C45.6814 50.624 45.0734 53.888 43.8574 57.024C42.6414 60.096 40.9454 62.816 38.7694 65.184C36.5934 67.552 34.0334 69.44 31.0894 70.848C28.2094 72.256 25.0734 72.96 21.6814 72.96ZM21.6814 71.04C24.8814 71.04 27.8254 70.368 30.5134 69.024C33.2654 67.616 35.6014 65.792 37.5214 63.552C39.5054 61.312 41.0414 58.784 42.1294 55.968C43.2174 53.088 43.7614 50.176 43.7614 47.232C43.7614 44.16 43.2494 41.184 42.2254 38.304C41.2014 35.424 39.7294 32.896 37.8094 30.72C35.9534 28.48 33.7134 26.688 31.0894 25.344C28.5294 24 25.6814 23.328 22.5454 23.328C20.1774 23.328 17.9374 23.744 15.8254 24.576C13.7774 25.344 11.8894 26.4 10.1614 27.744C8.49737 29.088 6.99337 30.624 5.64937 32.352C4.30537 34.08 3.15337 35.904 2.19337 37.824V55.968C2.32137 58.016 3.02537 59.968 4.30537 61.824C5.64937 63.616 7.28137 65.216 9.20137 66.624C11.1214 67.968 13.2014 69.056 15.4414 69.888C17.6814 70.656 19.7614 71.04 21.6814 71.04ZM76.5491 72.96C73.2851 72.96 70.1811 72.288 67.2371 70.944C64.3571 69.536 61.8291 67.648 59.6531 65.28C57.4771 62.848 55.7491 60.064 54.4691 56.928C53.1891 53.728 52.5491 50.336 52.5491 46.752C52.5491 43.232 53.1571 39.936 54.3731 36.864C55.5891 33.792 57.2531 31.104 59.3651 28.8C61.5411 26.496 64.0371 24.704 66.8531 23.424C69.7331 22.08 72.8051 21.408 76.0691 21.408C79.3971 21.408 82.5011 22.08 85.3811 23.424C88.3251 24.768 90.8531 26.592 92.9651 28.896C95.1411 31.2 96.8691 33.92 98.1491 37.056C99.4291 40.192 100.069 43.552 100.069 47.136V48.192H54.4691C54.7251 51.392 55.4611 54.4 56.6771 57.216C57.9571 59.968 59.5891 62.368 61.5731 64.416C63.5571 66.464 65.8291 68.096 68.3891 69.312C71.0131 70.464 73.7651 71.04 76.6451 71.04C78.5651 71.04 80.4211 70.784 82.2131 70.272C84.0691 69.76 85.7971 69.056 87.3971 68.16C88.9971 67.2 90.4051 66.08 91.6211 64.8C92.8371 63.52 93.7971 62.112 94.5011 60.576L96.3251 61.056C95.6211 62.784 94.5971 64.384 93.2531 65.856C91.9731 67.264 90.4371 68.512 88.6451 69.6C86.9171 70.624 84.9971 71.424 82.8851 72C80.8371 72.64 78.7251 72.96 76.5491 72.96ZM98.0531 46.272C97.8611 42.944 97.1571 39.872 95.9411 37.056C94.7251 34.24 93.1251 31.84 91.1411 29.856C89.2211 27.808 86.9811 26.208 84.4211 25.056C81.8611 23.904 79.1091 23.328 76.1651 23.328C73.2211 23.328 70.4691 23.904 67.9091 25.056C65.3491 26.208 63.0771 27.808 61.0931 29.856C59.1731 31.904 57.6371 34.336 56.4851 37.152C55.3331 39.968 54.6611 43.008 54.4691 46.272H98.0531Z" fill="white"/>
<path d="M111.03 72V3.84H132.918C138.294 3.84 142.966 4.736 146.934 6.528C150.966 8.32 154.294 10.752 156.918 13.824C159.606 16.896 161.59 20.512 162.87 24.672C164.214 28.768 164.886 33.152 164.886 37.824C164.886 43.008 164.118 47.712 162.582 51.936C161.11 56.096 158.998 59.68 156.246 62.688C153.494 65.632 150.134 67.936 146.166 69.6C142.198 71.2 137.782 72 132.918 72H111.03ZM162.966 37.824C162.966 33.152 162.294 28.864 160.95 24.96C159.67 21.056 157.75 17.696 155.19 14.88C152.63 12 149.462 9.76 145.686 8.16C141.974 6.56 137.718 5.75999 132.918 5.75999H112.95V70.08H132.918C137.846 70.08 142.166 69.28 145.878 67.68C149.654 66.016 152.79 63.744 155.286 60.864C157.846 57.984 159.766 54.592 161.046 50.688C162.326 46.72 162.966 42.432 162.966 37.824ZM175.92 72V22.176H177.84V72H175.92ZM175.92 9.31199V1.92H177.84V9.31199H175.92ZM229.821 2.88C227.133 2.88 224.893 3.424 223.101 4.512C221.309 5.536 219.869 6.912 218.781 8.64C217.693 10.304 216.893 12.16 216.381 14.208C215.933 16.256 215.709 18.24 215.709 20.16V22.176H233.469V24.096H215.709V72H213.789V24.096H195.837V72H193.917V24.096H186.717V22.176H193.917V21.12C193.917 19.2 194.141 17.28 194.589 15.36C195.101 13.376 195.901 11.616 196.989 10.08C198.141 8.48 199.581 7.2 201.309 6.23999C203.101 5.27999 205.309 4.8 207.933 4.8C210.109 4.8 212.029 5.088 213.693 5.664C215.421 6.24 216.637 6.784 217.341 7.296C218.621 5.376 220.221 3.83999 222.141 2.68799C224.061 1.536 226.525 0.959999 229.533 0.959999C231.133 0.959999 232.477 1.12 233.565 1.44C234.653 1.76 235.517 2.112 236.157 2.496C236.861 2.88 237.341 3.264 237.597 3.648C237.853 3.968 237.981 4.16 237.981 4.224L236.445 5.376C236.317 5.184 236.093 4.96 235.773 4.704C235.517 4.448 235.133 4.192 234.621 3.936C234.109 3.616 233.469 3.36 232.701 3.168C231.933 2.976 230.973 2.88 229.821 2.88ZM213.789 22.176C213.789 19.36 213.981 16.896 214.365 14.784C214.813 12.672 215.485 10.752 216.381 9.024C215.229 8.064 213.789 7.456 212.061 7.2C210.397 6.88 209.053 6.72 208.029 6.72C205.597 6.72 203.581 7.2 201.981 8.16C200.381 9.12 199.133 10.336 198.237 11.808C197.341 13.216 196.701 14.784 196.317 16.512C195.997 18.176 195.837 19.712 195.837 21.12V22.176H213.789ZM259.557 72.96C256.293 72.96 253.189 72.288 250.245 70.944C247.365 69.536 244.837 67.648 242.661 65.28C240.485 62.848 238.757 60.064 237.477 56.928C236.197 53.728 235.557 50.336 235.557 46.752C235.557 43.232 236.165 39.936 237.381 36.864C238.597 33.792 240.261 31.104 242.373 28.8C244.549 26.496 247.045 24.704 249.861 23.424C252.741 22.08 255.813 21.408 259.077 21.408C262.405 21.408 265.509 22.08 268.389 23.424C271.333 24.768 273.861 26.592 275.973 28.896C278.149 31.2 279.877 33.92 281.157 37.056C282.437 40.192 283.077 43.552 283.077 47.136V48.192H237.477C237.733 51.392 238.469 54.4 239.685 57.216C240.965 59.968 242.597 62.368 244.581 64.416C246.565 66.464 248.837 68.096 251.397 69.312C254.021 70.464 256.773 71.04 259.653 71.04C261.573 71.04 263.429 70.784 265.221 70.272C267.077 69.76 268.805 69.056 270.405 68.16C272.005 67.2 273.413 66.08 274.629 64.8C275.845 63.52 276.805 62.112 277.509 60.576L279.333 61.056C278.629 62.784 277.605 64.384 276.261 65.856C274.981 67.264 273.445 68.512 271.653 69.6C269.925 70.624 268.005 71.424 265.893 72C263.845 72.64 261.733 72.96 259.557 72.96ZM281.061 46.272C280.869 42.944 280.165 39.872 278.949 37.056C277.733 34.24 276.133 31.84 274.149 29.856C272.229 27.808 269.989 26.208 267.429 25.056C264.869 23.904 262.117 23.328 259.173 23.328C256.229 23.328 253.477 23.904 250.917 25.056C248.357 26.208 246.085 27.808 244.101 29.856C242.181 31.904 240.645 34.336 239.493 37.152C238.341 39.968 237.669 43.008 237.477 46.272H281.061ZM313.909 24.096C309.173 24.288 305.077 25.824 301.621 28.704C298.229 31.584 295.861 35.52 294.517 40.512V72H292.597V22.176H294.517V35.04C296.245 31.52 298.549 28.64 301.429 26.4C304.373 24.096 307.477 22.752 310.741 22.368C311.381 22.304 311.957 22.272 312.469 22.272C313.045 22.208 313.525 22.176 313.909 22.176V24.096ZM339.529 72.96C336.265 72.96 333.161 72.288 330.217 70.944C327.337 69.536 324.809 67.648 322.633 65.28C320.457 62.848 318.729 60.064 317.449 56.928C316.169 53.728 315.529 50.336 315.529 46.752C315.529 43.232 316.137 39.936 317.353 36.864C318.569 33.792 320.233 31.104 322.345 28.8C324.521 26.496 327.017 24.704 329.833 23.424C332.713 22.08 335.785 21.408 339.049 21.408C342.377 21.408 345.481 22.08 348.361 23.424C351.305 24.768 353.833 26.592 355.945 28.896C358.121 31.2 359.849 33.92 361.129 37.056C362.409 40.192 363.049 43.552 363.049 47.136V48.192H317.449C317.705 51.392 318.441 54.4 319.657 57.216C320.937 59.968 322.569 62.368 324.553 64.416C326.537 66.464 328.809 68.096 331.369 69.312C333.993 70.464 336.745 71.04 339.625 71.04C341.545 71.04 343.401 70.784 345.193 70.272C347.049 69.76 348.777 69.056 350.377 68.16C351.977 67.2 353.385 66.08 354.601 64.8C355.817 63.52 356.777 62.112 357.481 60.576L359.305 61.056C358.601 62.784 357.577 64.384 356.233 65.856C354.953 67.264 353.417 68.512 351.625 69.6C349.897 70.624 347.977 71.424 345.865 72C343.817 72.64 341.705 72.96 339.529 72.96ZM361.033 46.272C360.841 42.944 360.137 39.872 358.921 37.056C357.705 34.24 356.105 31.84 354.121 29.856C352.201 27.808 349.961 26.208 347.401 25.056C344.841 23.904 342.089 23.328 339.145 23.328C336.201 23.328 333.449 23.904 330.889 25.056C328.329 26.208 326.057 27.808 324.073 29.856C322.153 31.904 320.617 34.336 319.465 37.152C318.313 39.968 317.641 43.008 317.449 46.272H361.033ZM411.258 72H409.338V44.256C409.338 36.96 408.314 31.648 406.266 28.32C404.282 24.992 401.05 23.328 396.57 23.328C394.138 23.328 391.738 23.776 389.37 24.672C387.066 25.504 384.922 26.688 382.938 28.224C380.954 29.76 379.226 31.584 377.754 33.696C376.282 35.808 375.194 38.08 374.49 40.512V72H372.57V22.176H374.49V35.04C375.514 33.056 376.826 31.232 378.426 29.568C380.026 27.84 381.786 26.4 383.706 25.248C385.626 24.032 387.674 23.104 389.85 22.464C392.026 21.76 394.234 21.408 396.474 21.408C401.594 21.408 405.338 23.264 407.706 26.976C410.074 30.624 411.258 36.384 411.258 44.256V72ZM443.854 69.696C443.854 69.696 443.598 69.856 443.086 70.176C442.638 70.496 441.998 70.816 441.166 71.136C440.398 71.456 439.47 71.744 438.382 72C437.294 72.32 436.078 72.48 434.734 72.48C432.43 72.48 430.414 71.776 428.686 70.368C426.958 68.96 426.094 67.104 426.094 64.8V24.096H418.894V22.176H426.094V4.8H428.014V22.176H440.014V24.096H428.014V64.8C428.142 66.656 428.878 68.096 430.222 69.12C431.566 70.08 433.07 70.56 434.734 70.56C435.822 70.56 436.846 70.464 437.806 70.272C438.766 70.016 439.598 69.76 440.302 69.504C441.07 69.184 441.646 68.896 442.03 68.64C442.478 68.384 442.734 68.224 442.798 68.16L443.854 69.696Z" fill="#FFD933"/>
</svg>
