<svg width="633" height="99" viewBox="0 0 633 99" fill="none" xmlns="http://www.w3.org/2000/svg">
<path d="M29.6807 98.3C26.994 98.3 24.3507 97.91 21.7507 97.13C19.2374 96.35 16.8107 95.2667 14.4707 93.88C12.2174 92.4933 10.094 90.89 8.10069 89.07C6.19402 87.1633 4.59069 85.1267 3.29069 82.96V97H0.690692V2.1H3.29069V45.26C6.75736 40.4067 10.744 36.42 15.2507 33.3C19.7574 30.0933 24.9574 28.49 30.8507 28.49C35.7907 28.49 40.2107 29.53 44.1107 31.61C48.0107 33.69 51.2607 36.42 53.8607 39.8C56.5474 43.0933 58.584 46.82 59.9707 50.98C61.444 55.14 62.1807 59.3 62.1807 63.46C62.1807 68.0533 61.3574 72.4733 59.7107 76.72C58.064 80.88 55.7674 84.5633 52.8207 87.77C49.874 90.9767 46.4074 93.5333 42.4207 95.44C38.5207 97.3467 34.274 98.3 29.6807 98.3ZM29.6807 95.7C34.014 95.7 38.0007 94.79 41.6407 92.97C45.3674 91.0633 48.5307 88.5933 51.1307 85.56C53.8174 82.5267 55.8974 79.1033 57.3707 75.29C58.844 71.39 59.5807 67.4467 59.5807 63.46C59.5807 59.3 58.8874 55.27 57.5007 51.37C56.114 47.47 54.1207 44.0467 51.5207 41.1C49.0074 38.0667 45.974 35.64 42.4207 33.82C38.954 32 35.0974 31.09 30.8507 31.09C27.644 31.09 24.6107 31.6533 21.7507 32.78C18.9774 33.82 16.4207 35.25 14.0807 37.07C11.8274 38.89 9.79069 40.97 7.97069 43.31C6.15069 45.65 4.59069 48.12 3.29069 50.72V75.29C3.46402 78.0633 4.41736 80.7067 6.15069 83.22C7.97069 85.6467 10.1807 87.8133 12.7807 89.72C15.3807 91.54 18.1974 93.0133 21.2307 94.14C24.264 95.18 27.0807 95.7 29.6807 95.7ZM103.981 98.3C99.5608 98.3 95.3574 97.39 91.3708 95.57C87.4708 93.6633 84.0474 91.1067 81.1008 87.9C78.1541 84.6067 75.8141 80.8367 74.0808 76.59C72.3474 72.2567 71.4808 67.6633 71.4808 62.81C71.4808 58.0433 72.3041 53.58 73.9508 49.42C75.5974 45.26 77.8508 41.62 80.7108 38.5C83.6574 35.38 87.0374 32.9533 90.8508 31.22C94.7508 29.4 98.9108 28.49 103.331 28.49C107.837 28.49 112.041 29.4 115.941 31.22C119.927 33.04 123.351 35.51 126.211 38.63C129.157 41.75 131.497 45.4333 133.231 49.68C134.964 53.9267 135.831 58.4767 135.831 63.33V64.76H74.0808C74.4274 69.0933 75.4241 73.1667 77.0708 76.98C78.8041 80.7067 81.0141 83.9567 83.7008 86.73C86.3874 89.5033 89.4641 91.7133 92.9308 93.36C96.4841 94.92 100.211 95.7 104.111 95.7C106.711 95.7 109.224 95.3533 111.651 94.66C114.164 93.9667 116.504 93.0133 118.671 91.8C120.837 90.5 122.744 88.9833 124.391 87.25C126.037 85.5167 127.337 83.61 128.291 81.53L130.761 82.18C129.807 84.52 128.421 86.6867 126.601 88.68C124.867 90.5867 122.787 92.2767 120.361 93.75C118.021 95.1367 115.421 96.22 112.561 97C109.787 97.8667 106.927 98.3 103.981 98.3ZM133.101 62.16C132.841 57.6533 131.887 53.4933 130.241 49.68C128.594 45.8667 126.427 42.6167 123.741 39.93C121.141 37.1567 118.107 34.99 114.641 33.43C111.174 31.87 107.447 31.09 103.461 31.09C99.4741 31.09 95.7474 31.87 92.2808 33.43C88.8141 34.99 85.7374 37.1567 83.0508 39.93C80.4508 42.7033 78.3708 45.9967 76.8108 49.81C75.2508 53.6233 74.3408 57.74 74.0808 62.16H133.101ZM269.841 97V29.53H272.441V97H269.841ZM269.841 12.11V2.1H272.441V12.11H269.841ZM342.833 3.4C339.193 3.4 336.16 4.13666 333.733 5.61C331.307 6.99666 329.357 8.86 327.883 11.2C326.41 13.4533 325.327 15.9667 324.633 18.74C324.027 21.5133 323.723 24.2 323.723 26.8V29.53H347.773V32.13H323.723V97H321.123V32.13H296.813V97H294.213V32.13H284.463V29.53H294.213V28.1C294.213 25.5 294.517 22.9 295.123 20.3C295.817 17.6133 296.9 15.23 298.373 13.15C299.933 10.9833 301.883 9.25 304.223 7.94999C306.65 6.64999 309.64 5.99999 313.193 5.99999C316.14 5.99999 318.74 6.38999 320.993 7.16999C323.333 7.94999 324.98 8.68666 325.933 9.38C327.667 6.77999 329.833 4.69999 332.433 3.13999C335.033 1.58 338.37 0.799999 342.443 0.799999C344.61 0.799999 346.43 1.01667 347.903 1.45C349.377 1.88333 350.547 2.36 351.413 2.88C352.367 3.39999 353.017 3.91999 353.363 4.44C353.71 4.87333 353.883 5.13333 353.883 5.22L351.803 6.78C351.63 6.52 351.327 6.21666 350.893 5.87C350.547 5.52333 350.027 5.17666 349.333 4.82999C348.64 4.39666 347.773 4.05 346.733 3.79C345.693 3.53 344.393 3.4 342.833 3.4ZM321.123 29.53C321.123 25.7167 321.383 22.38 321.903 19.52C322.51 16.66 323.42 14.06 324.633 11.72C323.073 10.42 321.123 9.59667 318.783 9.25C316.53 8.81667 314.71 8.6 313.323 8.6C310.03 8.6 307.3 9.25 305.133 10.55C302.967 11.85 301.277 13.4967 300.063 15.49C298.85 17.3967 297.983 19.52 297.463 21.86C297.03 24.1133 296.813 26.1933 296.813 28.1V29.53H321.123ZM383.1 98.3C378.68 98.3 374.477 97.39 370.49 95.57C366.59 93.6633 363.167 91.1067 360.22 87.9C357.273 84.6067 354.933 80.8367 353.2 76.59C351.467 72.2567 350.6 67.6633 350.6 62.81C350.6 58.0433 351.423 53.58 353.07 49.42C354.717 45.26 356.97 41.62 359.83 38.5C362.777 35.38 366.157 32.9533 369.97 31.22C373.87 29.4 378.03 28.49 382.45 28.49C386.957 28.49 391.16 29.4 395.06 31.22C399.047 33.04 402.47 35.51 405.33 38.63C408.277 41.75 410.617 45.4333 412.35 49.68C414.083 53.9267 414.95 58.4767 414.95 63.33V64.76H353.2C353.547 69.0933 354.543 73.1667 356.19 76.98C357.923 80.7067 360.133 83.9567 362.82 86.73C365.507 89.5033 368.583 91.7133 372.05 93.36C375.603 94.92 379.33 95.7 383.23 95.7C385.83 95.7 388.343 95.3533 390.77 94.66C393.283 93.9667 395.623 93.0133 397.79 91.8C399.957 90.5 401.863 88.9833 403.51 87.25C405.157 85.5167 406.457 83.61 407.41 81.53L409.88 82.18C408.927 84.52 407.54 86.6867 405.72 88.68C403.987 90.5867 401.907 92.2767 399.48 93.75C397.14 95.1367 394.54 96.22 391.68 97C388.907 97.8667 386.047 98.3 383.1 98.3ZM412.22 62.16C411.96 57.6533 411.007 53.4933 409.36 49.68C407.713 45.8667 405.547 42.6167 402.86 39.93C400.26 37.1567 397.227 34.99 393.76 33.43C390.293 31.87 386.567 31.09 382.58 31.09C378.593 31.09 374.867 31.87 371.4 33.43C367.933 34.99 364.857 37.1567 362.17 39.93C359.57 42.7033 357.49 45.9967 355.93 49.81C354.37 53.6233 353.46 57.74 353.2 62.16H412.22ZM456.702 32.13C450.289 32.39 444.742 34.47 440.062 38.37C435.469 42.27 432.262 47.6 430.442 54.36V97H427.842V29.53H430.442V46.95C432.782 42.1833 435.902 38.2833 439.802 35.25C443.789 32.13 447.992 30.31 452.412 29.79C453.279 29.7033 454.059 29.66 454.752 29.66C455.532 29.5733 456.182 29.53 456.702 29.53V32.13ZM491.396 98.3C486.976 98.3 482.773 97.39 478.786 95.57C474.886 93.6633 471.463 91.1067 468.516 87.9C465.569 84.6067 463.229 80.8367 461.496 76.59C459.763 72.2567 458.896 67.6633 458.896 62.81C458.896 58.0433 459.719 53.58 461.366 49.42C463.013 45.26 465.266 41.62 468.126 38.5C471.073 35.38 474.453 32.9533 478.266 31.22C482.166 29.4 486.326 28.49 490.746 28.49C495.253 28.49 499.456 29.4 503.356 31.22C507.343 33.04 510.766 35.51 513.626 38.63C516.573 41.75 518.913 45.4333 520.646 49.68C522.379 53.9267 523.246 58.4767 523.246 63.33V64.76H461.496C461.843 69.0933 462.839 73.1667 464.486 76.98C466.219 80.7067 468.429 83.9567 471.116 86.73C473.803 89.5033 476.879 91.7133 480.346 93.36C483.899 94.92 487.626 95.7 491.526 95.7C494.126 95.7 496.639 95.3533 499.066 94.66C501.579 93.9667 503.919 93.0133 506.086 91.8C508.253 90.5 510.159 88.9833 511.806 87.25C513.453 85.5167 514.753 83.61 515.706 81.53L518.176 82.18C517.223 84.52 515.836 86.6867 514.016 88.68C512.283 90.5867 510.203 92.2767 507.776 93.75C505.436 95.1367 502.836 96.22 499.976 97C497.203 97.8667 494.343 98.3 491.396 98.3ZM520.516 62.16C520.256 57.6533 519.303 53.4933 517.656 49.68C516.009 45.8667 513.843 42.6167 511.156 39.93C508.556 37.1567 505.523 34.99 502.056 33.43C498.589 31.87 494.863 31.09 490.876 31.09C486.889 31.09 483.163 31.87 479.696 33.43C476.229 34.99 473.153 37.1567 470.466 39.93C467.866 42.7033 465.786 45.9967 464.226 49.81C462.666 53.6233 461.756 57.74 461.496 62.16H520.516ZM588.528 97H585.928V59.43C585.928 49.55 584.542 42.3567 581.768 37.85C579.082 33.3433 574.705 31.09 568.638 31.09C565.345 31.09 562.095 31.6967 558.888 32.91C555.768 34.0367 552.865 35.64 550.178 37.72C547.492 39.8 545.152 42.27 543.158 45.13C541.165 47.99 539.692 51.0667 538.738 54.36V97H536.138V29.53H538.738V46.95C540.125 44.2633 541.902 41.7933 544.068 39.54C546.235 37.2 548.618 35.25 551.218 33.69C553.818 32.0433 556.592 30.7867 559.538 29.92C562.485 28.9667 565.475 28.49 568.508 28.49C575.442 28.49 580.512 31.0033 583.718 36.03C586.925 40.97 588.528 48.77 588.528 59.43V97ZM632.669 93.88C632.669 93.88 632.323 94.0967 631.629 94.53C631.023 94.9633 630.156 95.3967 629.029 95.83C627.989 96.2633 626.733 96.6533 625.259 97C623.786 97.4333 622.139 97.65 620.319 97.65C617.199 97.65 614.469 96.6967 612.129 94.79C609.789 92.8833 608.619 90.37 608.619 87.25V32.13H598.869V29.53H608.619V5.99999H611.219V29.53H627.469V32.13H611.219V87.25C611.393 89.7633 612.389 91.7133 614.209 93.1C616.029 94.4 618.066 95.05 620.319 95.05C621.793 95.05 623.179 94.92 624.479 94.66C625.779 94.3133 626.906 93.9667 627.859 93.62C628.899 93.1867 629.679 92.7967 630.199 92.45C630.806 92.1033 631.153 91.8867 631.239 91.8L632.669 93.88Z" fill="white"/>
<path d="M181.97 97V4.7H211.61C218.89 4.7 225.216 5.91333 230.59 8.33999C236.05 10.7667 240.556 14.06 244.11 18.22C247.75 22.38 250.436 27.2767 252.17 32.91C253.99 38.4567 254.9 44.3933 254.9 50.72C254.9 57.74 253.86 64.11 251.78 69.83C249.786 75.4633 246.926 80.3167 243.2 84.39C239.473 88.3767 234.923 91.4967 229.55 93.75C224.176 95.9167 218.196 97 211.61 97H181.97ZM252.3 50.72C252.3 44.3933 251.39 38.5867 249.57 33.3C247.836 28.0133 245.236 23.4633 241.77 19.65C238.303 15.75 234.013 12.7167 228.9 10.55C223.873 8.38333 218.11 7.29999 211.61 7.29999H184.57V94.4H211.61C218.283 94.4 224.133 93.3167 229.16 91.15C234.273 88.8967 238.52 85.82 241.9 81.92C245.366 78.02 247.966 73.4267 249.7 68.14C251.433 62.7667 252.3 56.96 252.3 50.72Z" fill="#FFD933"/>
</svg>
