<svg width="533" height="110" viewBox="0 0 533 110" fill="none" xmlns="http://www.w3.org/2000/svg">
<path d="M0.0868707 109.448V0.967995H20.0549V109.448H0.0868707ZM15.7094 109.448V32.36H21.4694V75.656C21.4694 77.832 21.3094 80.04 20.9894 82.28C20.6694 84.52 20.2854 86.76 19.8374 89H32.2214C32.4134 87.912 32.5734 86.824 32.7014 85.736C32.8934 84.648 33.0534 83.56 33.1814 82.472C35.8694 87.464 40.5094 89.96 47.1014 89.96C53.6294 89.96 58.5574 87.624 61.8854 82.952C65.2774 78.28 66.9734 72.744 66.9734 66.344C66.9734 59.56 65.2454 54.28 61.7894 50.504C58.3334 46.728 53.8854 44.84 48.4454 44.84C44.5414 44.84 41.4054 45.736 39.0374 47.528C36.7334 49.32 35.0054 51.464 33.8534 53.96V22.952H15.7094V0.967995H69.8534V109.448H15.7094ZM54.1094 67.4C54.1094 71.816 53.1174 75.08 51.1334 77.192C49.2134 79.24 46.8454 80.264 44.0294 80.264C40.7654 80.264 38.2374 79.08 36.4454 76.712C34.7174 74.28 33.8534 71.304 33.8534 67.784V66.728C33.8534 63.528 34.7494 60.712 36.5414 58.28C38.3974 55.848 40.9894 54.632 44.3174 54.632C47.2614 54.632 49.6294 55.72 51.4214 57.896C53.2134 60.072 54.1094 63.24 54.1094 67.4ZM66.0081 109.448V0.967995H114.2V109.448H66.0081ZM111.416 75.368L101.048 73.448C100.792 74.728 100.056 76.168 98.8401 77.768C97.6881 79.368 95.4481 80.168 92.1201 80.168C86.0401 80.168 82.6481 76.744 81.9441 69.896H110.36C110.808 67.848 111.032 65.768 111.032 63.656C110.968 58.024 109.048 53.48 105.272 50.024C101.56 46.568 96.6961 44.84 90.6801 44.84C83.8321 44.84 78.4881 47.08 74.6481 51.56C70.8721 55.976 68.9841 61.512 68.9841 68.168C68.9841 75.4 71.0641 80.84 75.2241 84.488C79.4481 88.136 84.7921 89.96 91.2561 89.96C97.4641 89.96 102.296 88.488 105.752 85.544C109.208 82.6 111.096 79.208 111.416 75.368ZM98.2641 62.696H82.0401C82.4241 60.008 83.3201 57.832 84.7281 56.168C86.1361 54.504 88.1201 53.672 90.6801 53.672C93.6241 53.672 95.6721 54.632 96.8241 56.552C98.0401 58.472 98.5201 60.52 98.2641 62.696ZM109.733 109.448V0.967995H129.701V109.448H109.733Z" fill="white"/>
<path d="M124.876 109.448V0.967995H144.844V109.448H124.876ZM140.498 109.448V0.967995H209.426V109.448H140.498ZM206.066 57.512C206.066 48.296 203.346 40.84 197.906 35.144C192.53 29.448 184.498 26.6 173.81 26.6H145.202V37.544H151.922V78.056H145.202V89H174.578C184.434 89 192.146 86.12 197.714 80.36C203.282 74.6 206.066 66.984 206.066 57.512ZM192.242 57.704C192.242 64.872 190.61 70.056 187.346 73.256C184.146 76.456 179.538 78.056 173.522 78.056H164.786V37.544H173.522C186.002 37.544 192.242 44.264 192.242 57.704ZM205.609 109.448V0.967995H236.233V109.448H205.609ZM214.921 25.16V38.024H227.305V25.16H214.921ZM209.641 89H233.545V79.688H227.785V45.704H209.161V55.112H215.401V79.688H209.641V89ZM296.121 34.28V109.448H232.377V0.967995H296.121V23.336C293.497 22.44 290.841 21.992 288.153 21.992C282.649 21.992 278.329 23.72 275.193 27.176C271.289 24.36 266.553 22.952 260.985 22.952C255.033 22.952 250.329 24.648 246.873 28.04C243.481 31.432 241.785 35.656 241.785 40.712V45.704H236.505V55.112H241.785V79.592H236.025V89H261.369V79.592H254.169V55.112H270.777V79.592H265.017V89H290.361V79.592H283.161V55.112H293.817V45.704H283.161V37.736C283.161 35.88 283.769 34.536 284.985 33.704C286.201 32.872 287.545 32.456 289.017 32.456C290.233 32.456 291.449 32.648 292.665 33.032C293.945 33.352 295.097 33.768 296.121 34.28ZM254.169 45.704V40.136C254.169 37.384 254.969 35.368 256.569 34.088C258.233 32.808 260.377 32.168 263.001 32.168C265.881 32.168 268.633 33.032 271.257 34.76C270.937 36.36 270.777 37.8 270.777 39.08V45.704H254.169ZM292.332 109.448V0.967995H340.524V109.448H292.332ZM337.74 75.368L327.372 73.448C327.116 74.728 326.38 76.168 325.164 77.768C324.012 79.368 321.772 80.168 318.444 80.168C312.364 80.168 308.972 76.744 308.268 69.896H336.684C337.132 67.848 337.356 65.768 337.356 63.656C337.292 58.024 335.372 53.48 331.596 50.024C327.884 46.568 323.02 44.84 317.004 44.84C310.156 44.84 304.812 47.08 300.972 51.56C297.196 55.976 295.308 61.512 295.308 68.168C295.308 75.4 297.388 80.84 301.548 84.488C305.772 88.136 311.116 89.96 317.58 89.96C323.788 89.96 328.62 88.488 332.076 85.544C335.532 82.6 337.42 79.208 337.74 75.368ZM324.588 62.696H308.364C308.748 60.008 309.644 57.832 311.052 56.168C312.46 54.504 314.444 53.672 317.004 53.672C319.948 53.672 321.996 54.632 323.148 56.552C324.364 58.472 324.844 60.52 324.588 62.696ZM336.537 109.448V0.967995H380.697V109.448H336.537ZM367.641 45.128C364.697 45.128 362.425 45.992 360.825 47.72C359.289 49.384 358.169 51.464 357.465 53.96V45.704H339.801V55.112H346.041V79.688H340.281V89H366.105V79.688H358.425V61.64C358.425 59.528 358.937 57.928 359.961 56.84C361.049 55.752 362.297 55.208 363.705 55.208C364.665 55.208 365.785 55.592 367.065 56.36L368.697 63.752L378.105 62.696L376.185 47.528C374.713 46.632 373.209 46.024 371.673 45.704C370.201 45.32 368.857 45.128 367.641 45.128ZM376.992 109.448V0.967995H425.184V109.448H376.992ZM422.4 75.368L412.032 73.448C411.776 74.728 411.04 76.168 409.824 77.768C408.672 79.368 406.432 80.168 403.104 80.168C397.024 80.168 393.632 76.744 392.928 69.896H421.344C421.792 67.848 422.016 65.768 422.016 63.656C421.952 58.024 420.032 53.48 416.256 50.024C412.544 46.568 407.68 44.84 401.664 44.84C394.816 44.84 389.472 47.08 385.632 51.56C381.856 55.976 379.968 61.512 379.968 68.168C379.968 75.4 382.048 80.84 386.208 84.488C390.432 88.136 395.776 89.96 402.24 89.96C408.448 89.96 413.28 88.488 416.736 85.544C420.192 82.6 422.08 79.208 422.4 75.368ZM409.248 62.696H393.024C393.408 60.008 394.304 57.832 395.712 56.168C397.12 54.504 399.104 53.672 401.664 53.672C404.608 53.672 406.656 54.632 407.808 56.552C409.024 58.472 409.504 60.52 409.248 62.696ZM421.197 109.448V0.967995H480.045V109.448H421.197ZM454.029 89H477.933V79.688H472.173V59.816C472.173 54.696 470.669 50.92 467.661 48.488C464.653 46.056 461.101 44.84 457.005 44.84C450.605 44.84 445.965 47.336 443.085 52.328V45.704H424.461V55.112H430.701V79.688H424.941V89H448.845V79.688H443.085V64.136C443.149 61.192 443.981 58.824 445.581 57.032C447.181 55.176 449.453 54.248 452.397 54.248C454.829 54.248 456.653 55.048 457.869 56.648C459.149 58.248 459.789 60.904 459.789 64.616V79.688H454.029V89ZM476.183 109.448V0.967995H516.311V109.448H476.183ZM515.351 75.56L506.327 72.776C505.943 75.976 505.143 77.928 503.927 78.632C502.775 79.272 501.815 79.592 501.047 79.592C497.847 79.592 496.247 77.704 496.247 73.928V54.536H511.799V45.704H496.247V32.552H483.863V45.704H477.719V54.536H483.863V76.04C483.863 80.52 485.271 83.976 488.087 86.408C490.967 88.776 494.807 89.96 499.607 89.96C508.887 89.96 514.135 85.16 515.351 75.56ZM512.033 109.448V0.967995H532.001V109.448H512.033Z" fill="#FFD933"/>
</svg>
