<svg width="72" height="72" viewBox="0 0 72 72" fill="none" xmlns="http://www.w3.org/2000/svg">
<rect width="72" height="72" fill="black" fill-opacity="0"/>
<rect width="72" height="72" fill="#FFD933"/>
<path d="M39.9705 70.1772C38.8846 70.1772 37.8162 70.022 36.7653 69.7116C35.7495 69.4013 34.7686 68.9702 33.8228 68.4185C32.9121 67.8667 32.0539 67.2287 31.2482 66.5045C30.4775 65.7459 29.8295 64.9355 29.3041 64.0733V69.6599H28.2532V31.8987H29.3041V49.0723C30.7052 47.1411 32.3166 45.5548 34.1381 44.3134C35.9596 43.0374 38.0614 42.3994 40.4434 42.3994C42.4401 42.3994 44.2266 42.8133 45.8029 43.6409C47.3792 44.4685 48.6928 45.5548 49.7437 46.8997C50.8296 48.2102 51.6528 49.693 52.2132 51.3483C52.8087 53.0036 53.1065 54.6589 53.1065 56.3142C53.1065 58.1419 52.7737 59.9006 52.1082 61.5904C51.4426 63.2457 50.5143 64.7113 49.3233 65.9872C48.1323 67.2632 46.7312 68.2805 45.1198 69.0392C43.5435 69.7979 41.827 70.1772 39.9705 70.1772ZM39.9705 69.1426C41.722 69.1426 43.3333 68.7805 44.8045 68.0564C46.3108 67.2977 47.5894 66.3149 48.6403 65.1079C49.7262 63.9009 50.5669 62.5387 51.1624 61.0214C51.7579 59.4696 52.0556 57.9005 52.0556 56.3142C52.0556 54.6589 51.7754 53.0553 51.2149 51.5035C50.6544 49.9517 49.8488 48.5895 48.7979 47.417C47.782 46.21 46.556 45.2445 45.1198 44.5203C43.7186 43.7961 42.1598 43.434 40.4434 43.434C39.1473 43.434 37.9213 43.6581 36.7653 44.1064C35.6444 44.5203 34.611 45.0893 33.6652 45.8135C32.7544 46.5376 31.9313 47.3653 31.1956 48.2964C30.46 49.2275 29.8295 50.2103 29.3041 51.2449V61.0214C29.3741 62.1249 29.7594 63.1767 30.46 64.1768C31.1956 65.1424 32.0889 66.0045 33.1398 66.7632C34.1906 67.4874 35.3291 68.0736 36.5551 68.5219C37.7812 68.9357 38.9196 69.1426 39.9705 69.1426Z" fill="#11497B"/>
<path d="M64.9047 69.0909C66.516 69.8151 68.2149 70.1772 70.0014 70.1772L72 70.0098V68.9781C71.3653 69.0878 70.7166 69.1426 70.054 69.1426C68.4777 69.1426 66.9714 68.8323 65.5352 68.2115C64.134 67.5563 62.8905 66.677 61.8046 65.5734C60.7187 64.4699 59.8254 63.1767 59.1248 61.6939C58.4593 60.1765 58.0564 58.5557 57.9163 56.8315H64.9582H72V55.7969H64.9582H57.9163C58.0214 54.0382 58.3892 52.4001 59.0197 50.8828C59.6503 49.3654 60.491 48.055 61.5419 46.9515C62.6278 45.8479 63.8713 44.9858 65.2725 44.3651C66.6737 43.7443 68.1799 43.434 69.7913 43.434C70.5509 43.434 71.2871 43.503 72 43.6409V42.5966L69.7387 42.3994C67.9522 42.3994 66.2708 42.7615 64.6945 43.4857C63.1532 44.1754 61.7871 45.141 60.5961 46.3825C59.4401 47.6239 58.5293 49.0723 57.8638 50.7276C57.1982 52.3829 56.8654 54.1589 56.8654 56.0555C56.8654 57.9867 57.2157 59.8144 57.9163 61.5387C58.6169 63.2284 59.5627 64.7285 60.7537 66.039C61.9447 67.3149 63.3284 68.3322 64.9047 69.0909Z" fill="#11497B"/>
</svg>
