<svg width="1839" height="1839" viewBox="0 0 1839 1839" fill="none" xmlns="http://www.w3.org/2000/svg">
<path d="M147.261 1081.34V755.904H207.165V1081.34H147.261ZM194.128 1081.34V850.08H211.408V979.968C211.408 986.496 210.928 993.12 209.968 999.84C209.008 1006.56 207.856 1013.28 206.512 1020H243.664C244.24 1016.74 244.72 1013.47 245.104 1010.21C245.68 1006.94 246.16 1003.68 246.544 1000.42C254.608 1015.39 268.528 1022.88 288.304 1022.88C307.888 1022.88 322.672 1015.87 332.656 1001.86C342.832 987.84 347.92 971.232 347.92 952.032C347.92 931.68 342.736 915.84 332.368 904.512C322 893.184 308.656 887.52 292.336 887.52C280.624 887.52 271.216 890.208 264.112 895.584C257.2 900.96 252.016 907.392 248.56 914.88V821.856H194.128V755.904H356.56V1081.34H194.128ZM309.328 955.2C309.328 968.448 306.352 978.24 300.4 984.576C294.64 990.72 287.536 993.792 279.088 993.792C269.296 993.792 261.712 990.24 256.336 983.136C251.152 975.84 248.56 966.912 248.56 956.352V953.184C248.56 943.584 251.248 935.136 256.624 927.84C262.192 920.544 269.968 916.896 279.952 916.896C288.784 916.896 295.888 920.16 301.264 926.688C306.64 933.216 309.328 942.72 309.328 955.2ZM345.024 1081.34V755.904H489.6V1081.34H345.024ZM481.248 979.104L450.144 973.344C449.376 977.184 447.168 981.504 443.52 986.304C440.064 991.104 433.344 993.504 423.36 993.504C405.12 993.504 394.944 983.232 392.832 962.688H478.08C479.424 956.544 480.096 950.304 480.096 943.968C479.904 927.072 474.144 913.44 462.816 903.072C451.68 892.704 437.088 887.52 419.04 887.52C398.496 887.52 382.464 894.24 370.944 907.68C359.616 920.928 353.952 937.536 353.952 957.504C353.952 979.2 360.192 995.52 372.672 1006.46C385.344 1017.41 401.376 1022.88 420.768 1022.88C439.392 1022.88 453.888 1018.46 464.256 1009.63C474.624 1000.8 480.288 990.624 481.248 979.104ZM441.792 941.088H393.12C394.272 933.024 396.96 926.496 401.184 921.504C405.408 916.512 411.36 914.016 419.04 914.016C427.872 914.016 434.016 916.896 437.472 922.656C441.12 928.416 442.56 934.56 441.792 941.088ZM476.199 1081.34V755.904H536.103V1081.34H476.199Z" fill="white"/>
<path d="M521.627 1081.34V755.904H581.531V1081.34H521.627ZM568.494 1081.34V755.904H775.278V1081.34H568.494ZM765.198 925.536C765.198 897.888 757.038 875.52 740.718 858.432C724.59 841.344 700.494 832.8 668.43 832.8H582.606V865.632H602.766V987.168H582.606V1020H670.734C700.302 1020 723.438 1011.36 740.142 994.08C756.846 976.8 765.198 953.952 765.198 925.536ZM723.726 926.112C723.726 947.616 718.83 963.168 709.038 972.768C699.438 982.368 685.614 987.168 667.566 987.168H641.358V865.632H667.566C705.006 865.632 723.726 885.792 723.726 926.112ZM763.828 1081.34V755.904H855.7V1081.34H763.828ZM791.764 828.48V867.072H828.916V828.48H791.764ZM775.924 1020H847.636V992.064H830.356V890.112H774.484V918.336H793.204V992.064H775.924V1020ZM1035.36 855.84V1081.34H844.131V755.904H1035.36V823.008C1027.49 820.32 1019.52 818.976 1011.46 818.976C994.947 818.976 981.987 824.16 972.579 834.528C960.867 826.08 946.659 821.856 929.955 821.856C912.099 821.856 897.987 826.944 887.619 837.12C877.443 847.296 872.355 859.968 872.355 875.136V890.112H856.515V918.336H872.355V991.776H855.075V1020H931.107V991.776H909.507V918.336H959.331V991.776H942.051V1020H1018.08V991.776H996.483V918.336H1028.45V890.112H996.483V866.208C996.483 860.64 998.307 856.608 1001.95 854.112C1005.6 851.616 1009.63 850.368 1014.05 850.368C1017.7 850.368 1021.35 850.944 1024.99 852.096C1028.83 853.056 1032.29 854.304 1035.36 855.84ZM909.507 890.112V873.408C909.507 865.152 911.907 859.104 916.707 855.264C921.699 851.424 928.131 849.504 936.003 849.504C944.643 849.504 952.899 852.096 960.771 857.28C959.811 862.08 959.331 866.4 959.331 870.24V890.112H909.507ZM1024 1081.34V755.904H1168.57V1081.34H1024ZM1160.22 979.104L1129.12 973.344C1128.35 977.184 1126.14 981.504 1122.49 986.304C1119.04 991.104 1112.32 993.504 1102.33 993.504C1084.09 993.504 1073.92 983.232 1071.8 962.688H1157.05C1158.4 956.544 1159.07 950.304 1159.07 943.968C1158.88 927.072 1153.12 913.44 1141.79 903.072C1130.65 892.704 1116.06 887.52 1098.01 887.52C1077.47 887.52 1061.44 894.24 1049.92 907.68C1038.59 920.928 1032.92 937.536 1032.92 957.504C1032.92 979.2 1039.16 995.52 1051.64 1006.46C1064.32 1017.41 1080.35 1022.88 1099.74 1022.88C1118.36 1022.88 1132.86 1018.46 1143.23 1009.63C1153.6 1000.8 1159.26 990.624 1160.22 979.104ZM1120.76 941.088H1072.09C1073.24 933.024 1075.93 926.496 1080.16 921.504C1084.38 916.512 1090.33 914.016 1098.01 914.016C1106.84 914.016 1112.99 916.896 1116.44 922.656C1120.09 928.416 1121.53 934.56 1120.76 941.088ZM1156.61 1081.34V755.904H1289.09V1081.34H1156.61ZM1249.92 888.384C1241.09 888.384 1234.27 890.976 1229.47 896.16C1224.87 901.152 1221.51 907.392 1219.39 914.88V890.112H1166.4V918.336H1185.12V992.064H1167.84V1020H1245.31V992.064H1222.27V937.92C1222.27 931.584 1223.81 926.784 1226.88 923.52C1230.15 920.256 1233.89 918.624 1238.11 918.624C1240.99 918.624 1244.35 919.776 1248.19 922.08L1253.09 944.256L1281.31 941.088L1275.55 895.584C1271.14 892.896 1266.63 891.072 1262.02 890.112C1257.6 888.96 1253.57 888.384 1249.92 888.384ZM1277.98 1081.34V755.904H1422.55V1081.34H1277.98ZM1414.2 979.104L1383.1 973.344C1382.33 977.184 1380.12 981.504 1376.47 986.304C1373.02 991.104 1366.3 993.504 1356.31 993.504C1338.07 993.504 1327.9 983.232 1325.78 962.688H1411.03C1412.38 956.544 1413.05 950.304 1413.05 943.968C1412.86 927.072 1407.1 913.44 1395.77 903.072C1384.63 892.704 1370.04 887.52 1351.99 887.52C1331.45 887.52 1315.42 894.24 1303.9 907.68C1292.57 920.928 1286.9 937.536 1286.9 957.504C1286.9 979.2 1293.14 995.52 1305.62 1006.46C1318.3 1017.41 1334.33 1022.88 1353.72 1022.88C1372.34 1022.88 1386.84 1018.46 1397.21 1009.63C1407.58 1000.8 1413.24 990.624 1414.2 979.104ZM1374.74 941.088H1326.07C1327.22 933.024 1329.91 926.496 1334.14 921.504C1338.36 916.512 1344.31 914.016 1351.99 914.016C1360.82 914.016 1366.97 916.896 1370.42 922.656C1374.07 928.416 1375.51 934.56 1374.74 941.088ZM1410.59 1081.34V755.904H1587.13V1081.34H1410.59ZM1509.09 1020H1580.8V992.064H1563.52V932.448C1563.52 917.088 1559.01 905.76 1549.98 898.464C1540.96 891.168 1530.3 887.52 1518.01 887.52C1498.81 887.52 1484.89 895.008 1476.25 909.984V890.112H1420.38V918.336H1439.1V992.064H1421.82V1020H1493.53V992.064H1476.25V945.408C1476.45 936.576 1478.94 929.472 1483.74 924.096C1488.54 918.528 1495.36 915.744 1504.19 915.744C1511.49 915.744 1516.96 918.144 1520.61 922.944C1524.45 927.744 1526.37 935.712 1526.37 946.848V992.064H1509.09V1020ZM1575.55 1081.34V755.904H1695.93V1081.34H1575.55ZM1693.05 979.68L1665.98 971.328C1664.83 980.928 1662.43 986.784 1658.78 988.896C1655.33 990.816 1652.45 991.776 1650.14 991.776C1640.54 991.776 1635.74 986.112 1635.74 974.784V916.608H1682.4V890.112H1635.74V850.656H1598.59V890.112H1580.16V916.608H1598.59V981.12C1598.59 994.56 1602.81 1004.93 1611.26 1012.22C1619.9 1019.33 1631.42 1022.88 1645.82 1022.88C1673.66 1022.88 1689.41 1008.48 1693.05 979.68ZM1683.1 1081.34V755.904H1743V1081.34H1683.1Z" fill="#FFD933"/>
</svg>
