<svg width="48" height="48" viewBox="0 0 48 48" fill="none" xmlns="http://www.w3.org/2000/svg">
<rect width="48" height="48" fill="black" fill-opacity="0"/>
<rect x="5" y="5" width="38" height="38" stroke="#FFD933" stroke-width="10"/>
<path d="M2.625 47.25V0.375H11.2919V47.25H2.625Z" fill="#FFD933"/>
<path d="M9.40575 47.25V0.375H39.3231V47.25H9.40575ZM37.8647 24.8081C37.8647 20.8258 36.6841 17.604 34.323 15.1427C31.9896 12.6814 28.5034 11.4508 23.8644 11.4508H11.4475V16.1798H14.3642V33.6853H11.4475V38.4143H24.1978C28.4756 38.4143 31.8229 37.1698 34.2396 34.6809C36.6564 32.1919 37.8647 28.901 37.8647 24.8081ZM31.8646 24.891C31.8646 27.9884 31.1562 30.2284 29.7395 31.6112C28.3506 32.9939 26.3506 33.6853 23.7394 33.6853H19.9477V16.1798H23.7394C29.1562 16.1798 31.8646 19.0835 31.8646 24.891Z" fill="#FFD933"/>
<path d="M37.4581 47.25V0.375H46.125V47.25H37.4581Z" fill="#FFD933"/>
</svg>
