<svg width="39" height="28" viewBox="0 0 39 28" fill="none" xmlns="http://www.w3.org/2000/svg">
<path d="M8.33513 27.36C7.59113 27.36 6.85913 27.252 6.13913 27.036C5.44313 26.82 4.77113 26.52 4.12313 26.136C3.49913 25.752 2.91113 25.308 2.35913 24.804C1.83113 24.276 1.38713 23.712 1.02713 23.112V27H0.307129V0.720001H1.02713V12.672C1.98713 11.328 3.09113 10.224 4.33913 9.36C5.58713 8.472 7.02713 8.028 8.65913 8.028C10.0271 8.028 11.2511 8.316 12.3311 8.892C13.4111 9.468 14.3111 10.224 15.0311 11.16C15.7751 12.072 16.3391 13.104 16.7231 14.256C17.1311 15.408 17.3351 16.56 17.3351 17.712C17.3351 18.984 17.1071 20.208 16.6511 21.384C16.1951 22.536 15.5591 23.556 14.7431 24.444C13.9271 25.332 12.9671 26.04 11.8631 26.568C10.7831 27.096 9.60713 27.36 8.33513 27.36ZM8.33513 26.64C9.53513 26.64 10.6391 26.388 11.6471 25.884C12.6791 25.356 13.5551 24.672 14.2751 23.832C15.0191 22.992 15.5951 22.044 16.0031 20.988C16.4111 19.908 16.6151 18.816 16.6151 17.712C16.6151 16.56 16.4231 15.444 16.0391 14.364C15.6551 13.284 15.1031 12.336 14.3831 11.52C13.6871 10.68 12.8471 10.008 11.8631 9.504C10.9031 9 9.83513 8.748 8.65913 8.748C7.77113 8.748 6.93113 8.904 6.13913 9.216C5.37113 9.504 4.66313 9.9 4.01513 10.404C3.39113 10.908 2.82713 11.484 2.32313 12.132C1.81913 12.78 1.38713 13.464 1.02713 14.184V20.988C1.07513 21.756 1.33913 22.488 1.81913 23.184C2.32313 23.856 2.93513 24.456 3.65513 24.984C4.37513 25.488 5.15513 25.896 5.99513 26.208C6.83513 26.496 7.61513 26.64 8.33513 26.64Z" fill="#FFD933"/>
<path d="M29.6305 27.36C28.4065 27.36 27.2425 27.108 26.1385 26.604C25.0585 26.076 24.1105 25.368 23.2945 24.48C22.4785 23.568 21.8305 22.524 21.3505 21.348C20.8705 20.148 20.6305 18.876 20.6305 17.532C20.6305 16.212 20.8585 14.976 21.3145 13.824C21.7705 12.672 22.3945 11.664 23.1865 10.8C24.0025 9.936 24.9385 9.264 25.9945 8.784C27.0745 8.28 28.2265 8.028 29.4505 8.028C30.6985 8.028 31.8625 8.28 32.9425 8.784C34.0465 9.288 34.9945 9.972 35.7865 10.836C36.6025 11.7 37.2505 12.72 37.7305 13.896C38.2105 15.072 38.4505 16.332 38.4505 17.676V18.072H21.3505C21.4465 19.272 21.7225 20.4 22.1785 21.456C22.6585 22.488 23.2705 23.388 24.0145 24.156C24.7585 24.924 25.6105 25.536 26.5705 25.992C27.5545 26.424 28.5865 26.64 29.6665 26.64C30.3865 26.64 31.0825 26.544 31.7545 26.352C32.4505 26.16 33.0985 25.896 33.6985 25.56C34.2985 25.2 34.8265 24.78 35.2825 24.3C35.7385 23.82 36.0985 23.292 36.3625 22.716L37.0465 22.896C36.7825 23.544 36.3985 24.144 35.8945 24.696C35.4145 25.224 34.8385 25.692 34.1665 26.1C33.5185 26.484 32.7985 26.784 32.0065 27C31.2385 27.24 30.4465 27.36 29.6305 27.36ZM37.6945 17.352C37.6225 16.104 37.3585 14.952 36.9025 13.896C36.4465 12.84 35.8465 11.94 35.1025 11.196C34.3825 10.428 33.5425 9.828 32.5825 9.396C31.6225 8.964 30.5905 8.748 29.4865 8.748C28.3825 8.748 27.3505 8.964 26.3905 9.396C25.4305 9.828 24.5785 10.428 23.8345 11.196C23.1145 11.964 22.5385 12.876 22.1065 13.932C21.6745 14.988 21.4225 16.128 21.3505 17.352H37.6945Z" fill="#FFD933"/>
</svg>
