<svg width="613" height="613" viewBox="0 0 613 613" fill="none" xmlns="http://www.w3.org/2000/svg">
<path d="M0.998371 613L0 0H612.002V613H0.998371Z" fill="url(#paint0_linear)" style="mix-blend-mode:multiply"/>
<path d="M49.0869 360.448V251.968H69.0549V360.448H49.0869ZM64.7094 360.448V283.36H70.4694V326.656C70.4694 328.832 70.3094 331.04 69.9894 333.28C69.6694 335.52 69.2854 337.76 68.8374 340H81.2214C81.4134 338.912 81.5734 337.824 81.7014 336.736C81.8934 335.648 82.0534 334.56 82.1814 333.472C84.8694 338.464 89.5094 340.96 96.1014 340.96C102.629 340.96 107.557 338.624 110.885 333.952C114.277 329.28 115.973 323.744 115.973 317.344C115.973 310.56 114.245 305.28 110.789 301.504C107.333 297.728 102.885 295.84 97.4454 295.84C93.5414 295.84 90.4054 296.736 88.0374 298.528C85.7334 300.32 84.0054 302.464 82.8534 304.96V273.952H64.7094V251.968H118.853V360.448H64.7094ZM103.109 318.4C103.109 322.816 102.117 326.08 100.133 328.192C98.2134 330.24 95.8454 331.264 93.0294 331.264C89.7654 331.264 87.2374 330.08 85.4454 327.712C83.7174 325.28 82.8534 322.304 82.8534 318.784V317.728C82.8534 314.528 83.7494 311.712 85.5414 309.28C87.3974 306.848 89.9894 305.632 93.3174 305.632C96.2614 305.632 98.6294 306.72 100.421 308.896C102.213 311.072 103.109 314.24 103.109 318.4ZM115.008 360.448V251.968H163.2V360.448H115.008ZM160.416 326.368L150.048 324.448C149.792 325.728 149.056 327.168 147.84 328.768C146.688 330.368 144.448 331.168 141.12 331.168C135.04 331.168 131.648 327.744 130.944 320.896H159.36C159.808 318.848 160.032 316.768 160.032 314.656C159.968 309.024 158.048 304.48 154.272 301.024C150.56 297.568 145.696 295.84 139.68 295.84C132.832 295.84 127.488 298.08 123.648 302.56C119.872 306.976 117.984 312.512 117.984 319.168C117.984 326.4 120.064 331.84 124.224 335.488C128.448 339.136 133.792 340.96 140.256 340.96C146.464 340.96 151.296 339.488 154.752 336.544C158.208 333.6 160.096 330.208 160.416 326.368ZM147.264 313.696H131.04C131.424 311.008 132.32 308.832 133.728 307.168C135.136 305.504 137.12 304.672 139.68 304.672C142.624 304.672 144.672 305.632 145.824 307.552C147.04 309.472 147.52 311.52 147.264 313.696ZM158.733 360.448V251.968H178.701V360.448H158.733Z" fill="white"/>
<path d="M173.876 360.448V251.968H193.844V360.448H173.876ZM189.498 360.448V251.968H258.426V360.448H189.498ZM255.066 308.512C255.066 299.296 252.346 291.84 246.906 286.144C241.53 280.448 233.498 277.6 222.81 277.6H194.202V288.544H200.922V329.056H194.202V340H223.578C233.434 340 241.146 337.12 246.714 331.36C252.282 325.6 255.066 317.984 255.066 308.512ZM241.242 308.704C241.242 315.872 239.61 321.056 236.346 324.256C233.146 327.456 228.538 329.056 222.522 329.056H213.786V288.544H222.522C235.002 288.544 241.242 295.264 241.242 308.704ZM254.609 360.448V251.968H285.233V360.448H254.609ZM263.921 276.16V289.024H276.305V276.16H263.921ZM258.641 340H282.545V330.688H276.785V296.704H258.161V306.112H264.401V330.688H258.641V340ZM345.121 285.28V360.448H281.377V251.968H345.121V274.336C342.497 273.44 339.841 272.992 337.153 272.992C331.649 272.992 327.329 274.72 324.193 278.176C320.289 275.36 315.553 273.952 309.985 273.952C304.033 273.952 299.329 275.648 295.873 279.04C292.481 282.432 290.785 286.656 290.785 291.712V296.704H285.505V306.112H290.785V330.592H285.025V340H310.369V330.592H303.169V306.112H319.777V330.592H314.017V340H339.361V330.592H332.161V306.112H342.817V296.704H332.161V288.736C332.161 286.88 332.769 285.536 333.985 284.704C335.201 283.872 336.545 283.456 338.017 283.456C339.233 283.456 340.449 283.648 341.665 284.032C342.945 284.352 344.097 284.768 345.121 285.28ZM303.169 296.704V291.136C303.169 288.384 303.969 286.368 305.569 285.088C307.233 283.808 309.377 283.168 312.001 283.168C314.881 283.168 317.633 284.032 320.257 285.76C319.937 287.36 319.777 288.8 319.777 290.08V296.704H303.169ZM341.332 360.448V251.968H389.524V360.448H341.332ZM386.74 326.368L376.372 324.448C376.116 325.728 375.38 327.168 374.164 328.768C373.012 330.368 370.772 331.168 367.444 331.168C361.364 331.168 357.972 327.744 357.268 320.896H385.684C386.132 318.848 386.356 316.768 386.356 314.656C386.292 309.024 384.372 304.48 380.596 301.024C376.884 297.568 372.02 295.84 366.004 295.84C359.156 295.84 353.812 298.08 349.972 302.56C346.196 306.976 344.308 312.512 344.308 319.168C344.308 326.4 346.388 331.84 350.548 335.488C354.772 339.136 360.116 340.96 366.58 340.96C372.788 340.96 377.62 339.488 381.076 336.544C384.532 333.6 386.42 330.208 386.74 326.368ZM373.588 313.696H357.364C357.748 311.008 358.644 308.832 360.052 307.168C361.46 305.504 363.444 304.672 366.004 304.672C368.948 304.672 370.996 305.632 372.148 307.552C373.364 309.472 373.844 311.52 373.588 313.696ZM385.537 360.448V251.968H429.697V360.448H385.537ZM416.641 296.128C413.697 296.128 411.425 296.992 409.825 298.72C408.289 300.384 407.169 302.464 406.465 304.96V296.704H388.801V306.112H395.041V330.688H389.281V340H415.105V330.688H407.425V312.64C407.425 310.528 407.937 308.928 408.961 307.84C410.049 306.752 411.297 306.208 412.705 306.208C413.665 306.208 414.785 306.592 416.065 307.36L417.697 314.752L427.105 313.696L425.185 298.528C423.713 297.632 422.209 297.024 420.673 296.704C419.201 296.32 417.857 296.128 416.641 296.128ZM425.992 360.448V251.968H474.184V360.448H425.992ZM471.4 326.368L461.032 324.448C460.776 325.728 460.04 327.168 458.824 328.768C457.672 330.368 455.432 331.168 452.104 331.168C446.024 331.168 442.632 327.744 441.928 320.896H470.344C470.792 318.848 471.016 316.768 471.016 314.656C470.952 309.024 469.032 304.48 465.256 301.024C461.544 297.568 456.68 295.84 450.664 295.84C443.816 295.84 438.472 298.08 434.632 302.56C430.856 306.976 428.968 312.512 428.968 319.168C428.968 326.4 431.048 331.84 435.208 335.488C439.432 339.136 444.776 340.96 451.24 340.96C457.448 340.96 462.28 339.488 465.736 336.544C469.192 333.6 471.08 330.208 471.4 326.368ZM458.248 313.696H442.024C442.408 311.008 443.304 308.832 444.712 307.168C446.12 305.504 448.104 304.672 450.664 304.672C453.608 304.672 455.656 305.632 456.808 307.552C458.024 309.472 458.504 311.52 458.248 313.696ZM470.197 360.448V251.968H529.045V360.448H470.197ZM503.029 340H526.933V330.688H521.173V310.816C521.173 305.696 519.669 301.92 516.661 299.488C513.653 297.056 510.101 295.84 506.005 295.84C499.605 295.84 494.965 298.336 492.085 303.328V296.704H473.461V306.112H479.701V330.688H473.941V340H497.845V330.688H492.085V315.136C492.149 312.192 492.981 309.824 494.581 308.032C496.181 306.176 498.453 305.248 501.397 305.248C503.829 305.248 505.653 306.048 506.869 307.648C508.149 309.248 508.789 311.904 508.789 315.616V330.688H503.029V340ZM525.183 360.448V251.968H565.311V360.448H525.183ZM564.351 326.56L555.327 323.776C554.943 326.976 554.143 328.928 552.927 329.632C551.775 330.272 550.815 330.592 550.047 330.592C546.847 330.592 545.247 328.704 545.247 324.928V305.536H560.799V296.704H545.247V283.552H532.863V296.704H526.719V305.536H532.863V327.04C532.863 331.52 534.271 334.976 537.087 337.408C539.967 339.776 543.807 340.96 548.607 340.96C557.887 340.96 563.135 336.16 564.351 326.56ZM561.033 360.448V251.968H581.001V360.448H561.033Z" fill="#FFD933"/>
<defs>
<linearGradient id="paint0_linear" x1="-4.69867e-05" y1="-26.1063" x2="489.825" y2="153.088" gradientUnits="userSpaceOnUse">
<stop stop-color="#11497B"/>
<stop offset="1" stop-color="#7B51B1"/>
</linearGradient>
</defs>
</svg>
