<svg width="799" height="164" viewBox="0 0 799 164" fill="none" xmlns="http://www.w3.org/2000/svg">
<path d="M0.98151 163.672V0.951992H30.9335V163.672H0.98151ZM24.4153 163.672V48.04H33.0553V112.984C33.0553 116.248 32.8153 119.56 32.3353 122.92C31.8553 126.28 31.2793 129.64 30.6073 133H49.1833C49.4713 131.368 49.7113 129.736 49.9033 128.104C50.1913 126.472 50.4313 124.84 50.6233 123.208C54.6553 130.696 61.6153 134.44 71.5033 134.44C81.2953 134.44 88.6873 130.936 93.6793 123.928C98.7673 116.92 101.311 108.616 101.311 99.016C101.311 88.84 98.7193 80.92 93.5353 75.256C88.3513 69.592 81.6793 66.76 73.5193 66.76C67.6633 66.76 62.9593 68.104 59.4073 70.792C55.9513 73.48 53.3593 76.696 51.6313 80.44V33.928H24.4153V0.951992H105.631V163.672H24.4153ZM82.0153 100.6C82.0153 107.224 80.5273 112.12 77.5513 115.288C74.6713 118.36 71.1193 119.896 66.8953 119.896C61.9993 119.896 58.2073 118.12 55.5193 114.568C52.9273 110.92 51.6313 106.456 51.6313 101.176V99.592C51.6313 94.792 52.9753 90.568 55.6633 86.92C58.4473 83.272 62.3353 81.448 67.3273 81.448C71.7433 81.448 75.2953 83.08 77.9833 86.344C80.6713 89.608 82.0153 94.36 82.0153 100.6ZM99.8634 163.672V0.951992H172.151V163.672H99.8634ZM167.975 112.552L152.423 109.672C152.039 111.592 150.935 113.752 149.111 116.152C147.383 118.552 144.023 119.752 139.031 119.752C129.911 119.752 124.823 114.616 123.767 104.344H166.391C167.063 101.272 167.399 98.152 167.399 94.984C167.303 86.536 164.423 79.72 158.759 74.536C153.191 69.352 145.895 66.76 136.871 66.76C126.599 66.76 118.583 70.12 112.823 76.84C107.159 83.464 104.327 91.768 104.327 101.752C104.327 112.6 107.447 120.76 113.687 126.232C120.023 131.704 128.039 134.44 137.735 134.44C147.047 134.44 154.295 132.232 159.479 127.816C164.663 123.4 167.495 118.312 167.975 112.552ZM148.247 93.544H123.911C124.487 89.512 125.831 86.248 127.943 83.752C130.055 81.256 133.031 80.008 136.871 80.008C141.287 80.008 144.359 81.448 146.087 84.328C147.911 87.208 148.631 90.28 148.247 93.544ZM165.451 163.672V0.951992H195.403V163.672H165.451Z" fill="white"/>
<path d="M188.165 163.672V0.951992H218.117V163.672H188.165ZM211.598 163.672V0.951992H314.99V163.672H211.598ZM309.95 85.768C309.95 71.944 305.87 60.76 297.71 52.216C289.646 43.672 277.598 39.4 261.566 39.4H218.654V55.816H228.734V116.584H218.654V133H262.718C277.502 133 289.07 128.68 297.422 120.04C305.774 111.4 309.95 99.976 309.95 85.768ZM289.214 86.056C289.214 96.808 286.766 104.584 281.87 109.384C277.07 114.184 270.158 116.584 261.134 116.584H248.03V55.816H261.134C279.854 55.816 289.214 65.896 289.214 86.056ZM309.265 163.672V0.951992H355.201V163.672H309.265ZM323.233 37.24V56.536H341.809V37.24H323.233ZM315.313 133H351.169V119.032H342.529V68.056H314.593V82.168H323.953V119.032H315.313V133ZM445.033 50.92V163.672H349.417V0.951992H445.033V34.504C441.097 33.16 437.113 32.488 433.081 32.488C424.825 32.488 418.345 35.08 413.641 40.264C407.785 36.04 400.681 33.928 392.329 33.928C383.401 33.928 376.345 36.472 371.161 41.56C366.073 46.648 363.529 52.984 363.529 60.568V68.056H355.609V82.168H363.529V118.888H354.889V133H392.905V118.888H382.105V82.168H407.017V118.888H398.377V133H436.393V118.888H425.593V82.168H441.577V68.056H425.593V56.104C425.593 53.32 426.505 51.304 428.329 50.056C430.153 48.808 432.169 48.184 434.377 48.184C436.201 48.184 438.025 48.472 439.849 49.048C441.769 49.528 443.497 50.152 445.033 50.92ZM382.105 68.056V59.704C382.105 55.576 383.305 52.552 385.705 50.632C388.201 48.712 391.417 47.752 395.353 47.752C399.673 47.752 403.801 49.048 407.737 51.64C407.257 54.04 407.017 56.2 407.017 58.12V68.056H382.105ZM439.349 163.672V0.951992H511.637V163.672H439.349ZM507.461 112.552L491.909 109.672C491.525 111.592 490.421 113.752 488.597 116.152C486.869 118.552 483.509 119.752 478.517 119.752C469.397 119.752 464.309 114.616 463.253 104.344H505.877C506.549 101.272 506.885 98.152 506.885 94.984C506.789 86.536 503.909 79.72 498.245 74.536C492.677 69.352 485.381 66.76 476.357 66.76C466.085 66.76 458.069 70.12 452.309 76.84C446.645 83.464 443.813 91.768 443.813 101.752C443.813 112.6 446.933 120.76 453.173 126.232C459.509 131.704 467.525 134.44 477.221 134.44C486.533 134.44 493.781 132.232 498.965 127.816C504.149 123.4 506.981 118.312 507.461 112.552ZM487.733 93.544H463.397C463.973 89.512 465.317 86.248 467.429 83.752C469.541 81.256 472.517 80.008 476.357 80.008C480.773 80.008 483.845 81.448 485.573 84.328C487.397 87.208 488.117 90.28 487.733 93.544ZM505.657 163.672V0.951992H571.897V163.672H505.657ZM552.313 67.192C547.897 67.192 544.489 68.488 542.089 71.08C539.785 73.576 538.105 76.696 537.049 80.44V68.056H510.553V82.168H519.913V119.032H511.273V133H550.009V119.032H538.489V91.96C538.489 88.792 539.257 86.392 540.793 84.76C542.425 83.128 544.297 82.312 546.409 82.312C547.849 82.312 549.529 82.888 551.449 84.04L553.897 95.128L568.009 93.544L565.129 70.792C562.921 69.448 560.665 68.536 558.361 68.056C556.153 67.48 554.137 67.192 552.313 67.192ZM566.339 163.672V0.951992H638.627V163.672H566.339ZM634.451 112.552L618.899 109.672C618.515 111.592 617.411 113.752 615.587 116.152C613.859 118.552 610.499 119.752 605.507 119.752C596.387 119.752 591.299 114.616 590.243 104.344H632.867C633.539 101.272 633.875 98.152 633.875 94.984C633.779 86.536 630.899 79.72 625.235 74.536C619.667 69.352 612.371 66.76 603.347 66.76C593.075 66.76 585.059 70.12 579.299 76.84C573.635 83.464 570.803 91.768 570.803 101.752C570.803 112.6 573.923 120.76 580.163 126.232C586.499 131.704 594.515 134.44 604.211 134.44C613.523 134.44 620.771 132.232 625.955 127.816C631.139 123.4 633.971 118.312 634.451 112.552ZM614.723 93.544H590.387C590.963 89.512 592.307 86.248 594.419 83.752C596.531 81.256 599.507 80.008 603.347 80.008C607.763 80.008 610.835 81.448 612.563 84.328C614.387 87.208 615.107 90.28 614.723 93.544ZM632.647 163.672V0.951992H720.919V163.672H632.647ZM681.895 133H717.751V119.032H709.111V89.224C709.111 81.544 706.855 75.88 702.343 72.232C697.831 68.584 692.503 66.76 686.359 66.76C676.759 66.76 669.799 70.504 665.479 77.992V68.056H637.543V82.168H646.903V119.032H638.263V133H674.119V119.032H665.479V95.704C665.575 91.288 666.823 87.736 669.223 85.048C671.623 82.264 675.031 80.872 679.447 80.872C683.095 80.872 685.831 82.072 687.655 84.472C689.575 86.872 690.535 90.856 690.535 96.424V119.032H681.895V133ZM715.126 163.672V0.951992H775.318V163.672H715.126ZM773.878 112.84L760.342 108.664C759.766 113.464 758.566 116.392 756.742 117.448C755.014 118.408 753.574 118.888 752.422 118.888C747.622 118.888 745.222 116.056 745.222 110.392V81.304H768.55V68.056H745.222V48.328H726.646V68.056H717.43V81.304H726.646V113.56C726.646 120.28 728.758 125.464 732.982 129.112C737.302 132.664 743.062 134.44 750.262 134.44C764.182 134.44 772.054 127.24 773.878 112.84ZM768.901 163.672V0.951992H798.853V163.672H768.901Z" fill="#FFD933"/>
</svg>
