<svg width="480" height="96" viewBox="0 0 480 96" fill="none" xmlns="http://www.w3.org/2000/svg">
<path d="M46.992 91.01C39.2787 93.87 32.0854 95.3 25.412 95.3C17.872 95.3 11.762 93.3067 7.08203 89.32C2.40203 85.3333 0.0620251 78.9633 0.0620251 70.21V28.48C0.0620251 21.8933 0.972025 16.91 2.79203 13.53C4.69869 10.15 7.55869 7.28999 11.372 4.94999C15.1854 2.78333 19.8654 1.7 25.412 1.7C32.172 1.7 38.282 3.12999 43.742 5.98999L41.662 10.93C36.722 9.11 32.042 8.2 27.622 8.2C22.3354 8.2 17.612 9.5 13.452 12.1C9.37869 14.7 7.34203 19.77 7.34203 27.31V69.95C7.34203 75.93 8.90203 80.5667 12.022 83.86C15.142 87.0667 19.822 88.67 26.062 88.67C31.522 88.67 37.9787 87.4133 45.432 84.9L46.992 91.01ZM110.893 69.95C110.893 78.7033 108.206 85.16 102.833 89.32C97.5465 93.3933 91.1765 95.43 83.7231 95.43C79.0431 95.43 74.6231 94.6067 70.4631 92.96C66.3031 91.2267 62.8798 88.4533 60.1931 84.64C57.5931 80.8267 56.2931 75.93 56.2931 69.95V28.09C56.2931 19.1633 58.7198 12.4033 63.5731 7.80999C68.5131 3.21666 75.2731 0.919997 83.8531 0.919997C92.4331 0.919997 99.0631 3.34666 103.743 8.2C108.51 13.0533 110.893 19.7267 110.893 28.22V69.95ZM103.743 26.92C103.743 20.5933 101.88 15.8267 98.1531 12.62C94.5131 9.41333 89.6598 7.80999 83.5931 7.80999C77.5265 7.80999 72.6731 9.41333 69.0331 12.62C65.3931 15.8267 63.5731 20.5933 63.5731 26.92V69.82C63.5731 75.9733 65.4365 80.6533 69.1631 83.86C72.9765 86.98 77.7865 88.54 83.5931 88.54C89.4865 88.54 94.2965 87.0233 98.0231 83.99C101.836 80.87 103.743 76.1033 103.743 69.69V26.92ZM119.191 2.99999H126.471V87.5H166.121V94H119.191V2.99999ZM142.647 2.99999H149.927V94H142.647V2.99999ZM171.531 2.99999H214.951V9.76H178.811V40.31H203.641L201.171 47.46H178.811V87.5H214.691V94H171.531V2.99999ZM270.831 62.15H241.191L231.051 94H223.381L252.501 2.99999H259.391L289.031 94H281.231L270.831 62.15ZM243.271 55H268.881L255.881 14.31L243.271 55ZM337.361 88.67C332.855 93.09 326.571 95.3 318.511 95.3C313.658 95.3 309.151 94.39 304.991 92.57C300.831 90.75 297.451 87.89 294.851 83.99C292.338 80.09 291.081 75.2367 291.081 69.43V28.61C291.081 22.5433 292.035 17.69 293.941 14.05C295.935 10.3233 298.751 7.33333 302.391 5.08C306.205 2.91333 310.885 1.82999 316.431 1.82999C323.191 1.82999 329.301 3.25999 334.761 6.11999L332.681 11.06C327.741 9.24 323.061 8.32999 318.641 8.32999C313.355 8.32999 308.631 9.63 304.471 12.23C300.398 14.83 298.361 19.9 298.361 27.44V69.69C298.361 75.4967 300.225 80.0467 303.951 83.34C307.765 86.6333 312.575 88.28 318.381 88.28C324.275 88.28 328.955 86.59 332.421 83.21C335.888 79.83 337.621 75.3667 337.621 69.82V62.15H329.041L326.571 55H344.511V94H339.181L337.361 88.67ZM416.805 2.87V69.82C416.805 78.5733 414.119 84.9433 408.745 88.93C403.459 92.9167 397.045 94.91 389.505 94.91C381.965 94.91 375.509 92.9167 370.135 88.93C364.762 84.9433 362.075 78.5733 362.075 69.82V2.87H369.355V70.86C369.355 76.1467 371.262 80.3933 375.075 83.6C378.975 86.8067 383.742 88.41 389.375 88.41C395.009 88.41 399.775 86.8067 403.675 83.6C407.575 80.3933 409.525 76.1467 409.525 70.86V2.87H416.805ZM436.228 2.99999H479.648V9.76H443.508V40.31H468.338L465.868 47.46H443.508V87.5H479.388V94H436.228V2.99999Z" fill="white"/>
</svg>
