<svg width="33" height="28" viewBox="0 0 33 28" fill="none" xmlns="http://www.w3.org/2000/svg">
<rect width="32" height="27.9998" fill="black" fill-opacity="0" transform="translate(0.869995)"/>
<path d="M3.94136 8.63071C4.34615 8.94882 5.56635 9.8936 7.60202 11.4646C9.63776 13.0355 11.1973 14.2451 12.2806 15.0935C12.3996 15.1864 12.6525 15.3886 13.0394 15.7001C13.4263 16.0119 13.7478 16.2638 14.0036 16.456C14.2596 16.6481 14.569 16.8636 14.9323 17.1022C15.2954 17.3406 15.6378 17.5198 15.9592 17.6385C16.2807 17.7582 16.5783 17.8175 16.852 17.8175H16.87H16.888C17.1617 17.8175 17.4595 17.7581 17.7809 17.6385C18.1022 17.5198 18.4449 17.3403 18.8077 17.1022C19.1707 16.8634 19.4802 16.6481 19.7362 16.456C19.9922 16.2638 20.3134 16.0119 20.7004 15.7001C21.0872 15.3883 21.3404 15.1864 21.4594 15.0935C22.5545 14.2451 25.3404 12.0907 29.8165 8.6303C30.6855 7.95445 31.4115 7.13894 31.9947 6.18434C32.5784 5.23015 32.8699 4.22916 32.8699 3.18192C32.8699 2.30679 32.587 1.55766 32.0215 0.934612C31.456 0.311421 30.7863 0 30.0127 0H3.72701C2.81041 0 2.10502 0.344646 1.61097 1.03394C1.11699 1.72337 0.869995 2.58513 0.869995 3.61913C0.869995 4.45435 1.19748 5.35943 1.85215 6.33381C2.50675 7.30827 3.20338 8.07397 3.94136 8.63071Z" fill="#FFD933"/>
<path d="M31.084 10.7581C27.1797 13.7011 24.215 15.9882 22.1915 17.6191C21.5129 18.1757 20.9624 18.6102 20.5397 18.9215C20.117 19.2331 19.5547 19.5513 18.8522 19.8759C18.15 20.2011 17.4955 20.3632 16.8882 20.3632H16.87H16.8521C16.2449 20.3632 15.5901 20.2011 14.8878 19.8759C14.1856 19.5513 13.623 19.2331 13.2004 18.9215C12.7779 18.6102 12.2272 18.1757 11.5487 17.6191C9.94148 16.3067 6.9832 14.0194 2.67375 10.7581C1.995 10.2547 1.39381 9.6776 0.869995 9.02808V24.8175C0.869995 25.6931 1.14964 26.4418 1.70923 27.0649C2.2687 27.6882 2.94144 27.9998 3.7272 27.9998H30.013C30.7985 27.9998 31.4712 27.6882 32.0308 27.0649C32.5905 26.4416 32.87 25.6931 32.87 24.8175V9.02808C32.358 9.66415 31.7629 10.2412 31.084 10.7581Z" fill="#FFD933"/>
</svg>
