<svg width="60" height="60" viewBox="0 0 60 60" fill="none" xmlns="http://www.w3.org/2000/svg">
<path fill-rule="evenodd" clip-rule="evenodd" d="M32.4924 26.9471V26.8594C32.4744 26.8888 32.4496 26.9182 32.4341 26.9471H32.4924Z" fill="#11497B"/>
<path fill-rule="evenodd" clip-rule="evenodd" d="M0 0V60H60V0H0ZM18.6622 49.8464H9.76035V23.0645H18.6622V49.8464ZM14.2113 19.4091H14.1525C11.1663 19.4091 9.23077 17.3519 9.23077 14.7804C9.23077 12.1526 11.2229 10.1536 14.2696 10.1536C17.3169 10.1536 19.1896 12.1526 19.2479 14.7804C19.2479 17.3519 17.3169 19.4091 14.2113 19.4091ZM50.7692 49.8464H41.865V35.518C41.865 31.9192 40.5785 29.4626 37.3557 29.4626C34.8946 29.4626 33.432 31.1167 32.7877 32.7189C32.5535 33.2912 32.4923 34.0867 32.4923 34.8893V49.8465H23.5863C23.5863 49.8465 23.7057 25.5771 23.5863 23.0647H32.4923V26.8597C33.6756 25.039 35.7872 22.4359 40.5173 22.4359C46.3771 22.4359 50.7692 26.2627 50.7692 34.4884V49.8464Z" fill="#11497B"/>
</svg>
