<svg width="60" height="60" viewBox="0 0 60 60" fill="none" xmlns="http://www.w3.org/2000/svg">
<path fill-rule="evenodd" clip-rule="evenodd" d="M40.2901 13.7534H19.7109C16.4265 13.7534 13.7539 16.4259 13.7539 19.7104V40.2894C13.7539 43.5744 16.4265 46.247 19.7109 46.247H40.2901C43.5749 46.247 46.2475 43.5744 46.2475 40.2894V19.7104C46.2475 16.4261 43.5749 13.7534 40.2901 13.7534ZM30.0001 40.6967C24.1024 40.6967 19.3036 35.8979 19.3036 29.9996C19.3036 24.1019 24.1024 19.3031 30.0001 19.3031C35.8984 19.3031 40.6972 24.1019 40.6972 29.9996C40.6972 35.8979 35.8984 40.6967 30.0001 40.6967ZM41.0414 21.515C39.6451 21.515 38.5097 20.3796 38.5097 18.9841C38.5097 17.5885 39.6451 16.4531 41.0414 16.4531C42.4369 16.4531 43.5723 17.5885 43.5723 18.9841C43.5723 20.3798 42.4369 21.515 41.0414 21.515Z" fill="#11497B"/>
<path fill-rule="evenodd" clip-rule="evenodd" d="M29.9995 23.824C26.5948 23.824 23.8223 26.5952 23.8223 29.9999C23.8223 33.4058 26.5948 36.1777 29.9995 36.1777C33.4055 36.1777 36.176 33.4058 36.176 29.9999C36.176 26.5952 33.4055 23.824 29.9995 23.824Z" fill="#11497B"/>
<path fill-rule="evenodd" clip-rule="evenodd" d="M0 0V60H60V0H0ZM50.7666 40.2895C50.7666 46.0675 46.0675 50.7666 40.2897 50.7666H19.7105C13.9332 50.7666 9.23341 46.0675 9.23341 40.2895V19.7105C9.23341 13.9332 13.9332 9.23341 19.7105 9.23341H40.2897C46.0675 9.23341 50.7666 13.9332 50.7666 19.7105V40.2895Z" fill="#11497B"/>
</svg>
