<svg width="33" height="32" viewBox="0 0 33 32" fill="none" xmlns="http://www.w3.org/2000/svg">
<rect width="32" height="32" fill="black" fill-opacity="0" transform="translate(0.869995)"/>
<path d="M23.3324 22.937C23.0391 22.9013 22.7745 23.1114 22.7404 23.4042C22.7063 23.697 22.9153 23.9621 23.2076 23.9962C28.8161 24.6565 31.8033 26.4357 31.8033 27.4666C31.8033 28.9141 26.1223 30.9333 16.87 30.9333C7.61773 30.9333 1.93666 28.9141 1.93666 27.4666C1.93666 26.4357 4.92386 24.6565 10.5324 23.9962C10.8247 23.9621 11.0337 23.6965 10.9996 23.4042C10.9649 23.1114 10.7004 22.9002 10.4076 22.937C4.79213 23.5984 0.869995 25.4608 0.869995 27.4666C0.869995 29.7194 6.366 32 16.87 32C27.374 32 32.87 29.7194 32.87 27.4666C32.87 25.4608 28.9479 23.5984 23.3324 22.937Z" fill="#FFD933"/>
<path d="M16.7756 29.2037L24.9575 17.3867C28.0263 13.2955 27.5825 6.57067 24.0076 2.99627C22.0759 1.064 19.5073 0 16.7756 0C14.0439 0 11.4753 1.064 9.54361 2.99573C5.96867 6.57013 5.52494 13.2949 8.58147 17.3701L16.7756 29.2037ZM16.87 6.4C18.9287 6.4 20.6033 8.0752 20.6033 10.1333C20.6033 12.1915 18.9287 13.8667 16.87 13.8667C14.8113 13.8667 13.1367 12.1915 13.1367 10.1333C13.1367 8.0752 14.8113 6.4 16.87 6.4Z" fill="#FFD933"/>
</svg>
