<svg width="200" height="200" viewBox="0 0 200 200" fill="none" xmlns="http://www.w3.org/2000/svg">
<path d="M186.361 172.071C193.881 172.071 200 165.952 200 158.431V19.5312C200 8.76172 191.238 0 180.469 0H19.5312C8.76172 0 0 8.76172 0 19.5312V158.431C0 165.952 6.11875 172.071 13.6395 172.071H17.9688V192.188H3.90625C1.74883 192.188 0 193.937 0 196.094C0 198.251 1.74883 200 3.90625 200H196.094C198.251 200 200 198.251 200 196.094C200 193.937 198.251 192.188 196.094 192.188H182.031V172.071H186.361ZM7.8125 19.5312C7.8125 13.0695 13.0695 7.8125 19.5312 7.8125H180.469C186.93 7.8125 192.188 13.0695 192.188 19.5312V28.125H8.20469C8.07227 28.125 7.94141 28.132 7.8125 28.1449V19.5312ZM42.9688 192.188H25.7812V157.031H42.9688V192.188ZM86.7188 192.188H69.5312V113.841H86.7188V192.188ZM130.469 192.188H113.281V146.875H130.469V192.188ZM178.125 100.195H153.125C150.968 100.195 149.219 101.945 149.219 104.102V123.828C149.219 125.985 150.968 127.734 153.125 127.734C155.282 127.734 157.031 125.985 157.031 123.828V108.008H174.219V192.188H157.031V150.098C157.031 147.941 155.282 146.191 153.125 146.191C150.968 146.191 149.219 147.941 149.219 150.098V192.188H138.281V142.969C138.281 140.812 136.532 139.062 134.375 139.062H109.375C107.218 139.062 105.469 140.812 105.469 142.969V192.188H94.5312V109.934C94.5312 107.777 92.7824 106.028 90.625 106.028H65.625C63.4676 106.028 61.7188 107.777 61.7188 109.934V192.188H50.7812V153.125C50.7812 150.968 49.0324 149.219 46.875 149.219H21.875C19.7176 149.219 17.9688 150.968 17.9688 153.125V164.259H13.6395C10.4262 164.259 7.8125 161.645 7.8125 158.431V35.9176C7.94141 35.9305 8.07227 35.9375 8.20469 35.9375H192.188V158.431C192.188 161.645 189.573 164.259 186.361 164.259H182.031V104.102C182.031 101.945 180.282 100.195 178.125 100.195Z" fill="white"/>
<path d="M175.001 14.0625H86.7451C84.5877 14.0625 82.8389 15.8117 82.8389 17.9688C82.8389 20.1258 84.5877 21.875 86.7451 21.875H175.001C177.158 21.875 178.907 20.1258 178.907 17.9688C178.907 15.8117 177.158 14.0625 175.001 14.0625Z" fill="white"/>
<path d="M43.3877 15.207C42.6611 14.4805 41.6533 14.0625 40.626 14.0625C39.5986 14.0625 38.5908 14.4801 37.8643 15.207C37.1377 15.9336 36.7197 16.9414 36.7197 17.9688C36.7197 18.9961 37.1377 20.0039 37.8643 20.7301C38.5908 21.457 39.5986 21.875 40.626 21.875C41.6533 21.875 42.6611 21.457 43.3877 20.7301C44.1143 20.0039 44.5322 18.9961 44.5322 17.9688C44.5322 16.9414 44.1143 15.9336 43.3877 15.207Z" fill="white"/>
<path d="M27.7627 15.207C27.0361 14.4805 26.0283 14.0625 25.001 14.0625C23.9736 14.0625 22.9658 14.4801 22.2393 15.207C21.5127 15.9336 21.0947 16.9414 21.0947 17.9688C21.0947 18.9961 21.5127 20.0039 22.2393 20.7301C22.9658 21.457 23.9736 21.875 25.001 21.875C26.0283 21.875 27.0361 21.457 27.7627 20.7301C28.4893 20.0039 28.9072 18.9961 28.9072 17.9688C28.9072 16.9414 28.4893 15.9336 27.7627 15.207Z" fill="white"/>
<path d="M59.0127 15.207C58.2861 14.4805 57.2822 14.0625 56.251 14.0625C55.2236 14.0625 54.2158 14.4801 53.4893 15.207C52.7627 15.9336 52.3447 16.9414 52.3447 17.9688C52.3447 18.9961 52.7627 20.0039 53.4893 20.7301C54.2158 21.457 55.2236 21.875 56.251 21.875C57.2783 21.875 58.2861 21.457 59.0127 20.7301C59.7393 20.0039 60.1572 18.9961 60.1572 17.9688C60.1572 16.9414 59.7393 15.9336 59.0127 15.207Z" fill="white"/>
<path d="M155.888 134.988C155.161 134.258 154.153 133.844 153.126 133.844C152.099 133.844 151.091 134.258 150.364 134.988C149.638 135.715 149.22 136.723 149.22 137.75C149.22 138.777 149.638 139.785 150.364 140.512C151.091 141.238 152.099 141.656 153.126 141.656C154.153 141.656 155.161 141.238 155.888 140.512C156.614 139.785 157.032 138.777 157.032 137.75C157.032 136.719 156.614 135.715 155.888 134.988Z" fill="white"/>
<path d="M165.627 53.1011C157.872 53.1011 151.564 59.4093 151.564 67.1636C151.564 70.2437 152.562 73.0937 154.248 75.4128L128.301 101.36C126.287 100.246 123.974 99.6089 121.514 99.6089C119.297 99.6089 117.199 100.126 115.332 101.044L88.2391 73.9507C89.3535 71.937 89.9902 69.6237 89.9902 67.1636C89.9902 59.4093 83.682 53.1011 75.9277 53.1011C68.1734 53.1011 61.8652 59.4093 61.8652 67.1636C61.8652 69.8737 62.6379 72.4058 63.9715 74.555L40.9039 97.6222C38.8902 96.5077 36.577 95.871 34.1172 95.871C26.3629 95.871 20.0547 102.179 20.0547 109.933C20.0547 117.688 26.3629 123.996 34.1172 123.996C41.8715 123.996 48.1797 117.688 48.1797 109.933C48.1797 107.473 47.543 105.16 46.4285 103.146L69.7715 79.8034C71.632 80.7132 73.7211 81.2257 75.9277 81.2257C78.3875 81.2257 80.7008 80.589 82.7144 79.4745L109.543 106.302C108.218 108.447 107.451 110.97 107.451 113.671C107.451 121.425 113.759 127.733 121.514 127.733C129.268 127.733 135.576 121.425 135.576 113.671C135.576 111.21 134.939 108.897 133.825 106.884L160.468 80.2409C162.066 80.8745 163.806 81.2261 165.627 81.2261C173.381 81.2261 179.689 74.9179 179.689 67.1636C179.689 59.4093 173.381 53.1011 165.627 53.1011ZM34.1176 116.184C30.6715 116.184 27.8676 113.38 27.8676 109.934C27.8676 106.488 30.6715 103.684 34.1176 103.684C37.5637 103.684 40.3676 106.488 40.3676 109.934C40.3676 113.38 37.5637 116.184 34.1176 116.184ZM75.9281 73.4136C72.482 73.4136 69.6781 70.6097 69.6781 67.1636C69.6781 63.7175 72.482 60.9136 75.9281 60.9136C79.3742 60.9136 82.1781 63.7175 82.1781 67.1636C82.1781 70.6097 79.3742 73.4136 75.9281 73.4136ZM121.514 119.921C118.068 119.921 115.264 117.117 115.264 113.671C115.264 110.225 118.068 107.421 121.514 107.421C124.96 107.421 127.764 110.225 127.764 113.671C127.764 117.117 124.96 119.921 121.514 119.921ZM165.627 73.4136C162.18 73.4136 159.377 70.6097 159.377 67.1636C159.377 63.7175 162.18 60.9136 165.627 60.9136C169.073 60.9136 171.877 63.7175 171.877 67.1636C171.877 70.6097 169.073 73.4136 165.627 73.4136Z" fill="white"/>
<path d="M57.9424 50.3715C57.2119 49.6449 56.208 49.2266 55.1807 49.2266C54.1494 49.2266 53.1416 49.6445 52.415 50.3715C51.6885 51.0977 51.2744 52.1055 51.2744 53.1328C51.2744 54.1602 51.6885 55.168 52.415 55.8945C53.1455 56.6211 54.1494 57.0391 55.1807 57.0391C56.208 57.0391 57.2119 56.6215 57.9424 55.8945C58.6689 55.168 59.0869 54.1602 59.0869 53.1328C59.0869 52.1055 58.6689 51.0977 57.9424 50.3715Z" fill="white"/>
<path d="M40.625 49.2271H21.875C19.7176 49.2271 17.9688 50.9763 17.9688 53.1333C17.9688 55.2903 19.7176 57.0395 21.875 57.0395H40.625C42.7824 57.0395 44.5312 55.2903 44.5312 53.1333C44.5312 50.9763 42.7824 49.2271 40.625 49.2271Z" fill="white"/>
<path d="M40.625 67.9771H21.875C19.7176 67.9771 17.9688 69.7263 17.9688 71.8833C17.9688 74.0403 19.7176 75.7896 21.875 75.7896H40.625C42.7824 75.7896 44.5312 74.0403 44.5312 71.8833C44.5312 69.7263 42.7824 67.9771 40.625 67.9771Z" fill="white"/>
</svg>
