<svg width="195" height="198" viewBox="0 0 195 198" fill="none" xmlns="http://www.w3.org/2000/svg">
<rect width="194.412" height="198" fill="black" fill-opacity="0"/>
<rect width="164.757" height="138.079" fill="black" fill-opacity="0"/>
<rect width="164.757" height="138.079" fill="black" fill-opacity="0"/>
<path d="M0.5 16.5003C0.510548 7.66754 7.65801 0.510561 16.476 0.5H148.281C157.099 0.510562 164.246 7.6677 164.257 16.5006V19.3001H158.666V16.5001C158.666 10.7569 154.018 6.10002 148.281 6.10002H16.4757C10.7392 6.10002 6.09027 10.7569 6.09027 16.5001V122.1C6.09027 122.1 6.09027 122.1 6.09027 122.1C6.08868 126.677 9.07169 130.696 13.4016 132.038L12.0027 137.462C5.20608 135.479 0.49922 129.231 0.5 122.1V16.5003Z" fill="white" stroke="#5A4EA0"/>
<rect width="6.59027" height="6.60002" fill="black" fill-opacity="0" transform="translate(13.1807 13.2001)"/>
<rect width="6.59027" height="6.60002" fill="black" fill-opacity="0" transform="translate(13.1807 13.2001)"/>
<path d="M13.6807 19.3001V13.7001H19.2709V19.3001H13.6807Z" fill="white" stroke="#5A4EA0"/>
<rect width="6.59027" height="6.60002" fill="black" fill-opacity="0" transform="translate(26.3611 13.2001)"/>
<rect width="6.59027" height="6.60002" fill="black" fill-opacity="0" transform="translate(26.3611 13.2001)"/>
<path d="M26.8611 19.3001V13.7001H32.4514V19.3001H26.8611Z" fill="white" stroke="#5A4EA0"/>
<rect width="6.59027" height="6.60002" fill="black" fill-opacity="0" transform="translate(39.5417 13.2001)"/>
<rect width="6.59027" height="6.60002" fill="black" fill-opacity="0" transform="translate(39.5417 13.2001)"/>
<path d="M40.0417 19.3001V13.7001H45.632V19.3001H40.0417Z" fill="white" stroke="#5A4EA0"/>
<rect width="161.461" height="145.2" fill="black" fill-opacity="0" transform="translate(32.9514 52.8002)"/>
<rect width="161.461" height="145.2" fill="black" fill-opacity="0" transform="translate(32.9514 52.8002)"/>
<path d="M161.757 150.923L161.572 151.253L161.839 151.52L193.094 182.821C194.185 183.914 194.185 185.687 193.094 186.78L183.208 196.68C182.117 197.773 180.348 197.773 179.257 196.681L148.747 166.126L148.449 165.827L148.105 166.071C144.054 168.93 139.564 171.108 134.813 172.519C110.702 179.678 85.3605 165.907 78.2117 141.759L78.1057 141.4H77.7323H33.4514V135.8H76.3154H76.8991L76.8095 135.224C75.5824 127.325 76.5285 119.241 79.5463 111.841L79.5833 111.751V111.653V76.4003H85.1736V100.215V101.666L86.0675 100.523C88.0034 98.0461 90.1877 95.7753 92.5868 93.7456L92.7639 93.5958V93.3639V69.8002H98.3541V88.7505V89.6188L99.1051 89.183C101.192 87.972 103.371 86.9296 105.623 86.0658L105.944 85.9427V85.599V73.1002H111.535V83.5959V84.2155L112.14 84.0846C114.288 83.6203 116.466 83.3139 118.658 83.1675L119.125 83.1363V82.6686V59.9002H124.715V82.6686V83.1363L125.182 83.1675C127.374 83.3139 129.552 83.6203 131.7 84.0846L132.305 84.2155V83.5959V53.3002H137.896V85.599V85.9427L138.217 86.0658C140.469 86.9296 142.649 87.972 144.735 89.1829L145.486 89.6188V88.7505V66.5002H151.076V93.3639V93.5958L151.253 93.7456C153.652 95.7753 155.837 98.0461 157.773 100.523L158.667 101.666V100.215V79.7003H164.257V111.653V111.751L164.294 111.841C167.312 119.241 168.258 127.325 167.031 135.224L166.941 135.8H167.525H170.847V141.4H166.108H165.735L165.629 141.758C164.679 144.946 163.381 148.02 161.757 150.923ZM121.92 168.801H121.92C144.035 168.801 161.962 150.846 161.962 128.7C161.962 106.555 144.035 88.6003 121.92 88.6003C99.8051 88.6003 81.8785 106.555 81.8785 128.7V128.701C81.9022 150.837 99.8145 168.777 121.92 168.801ZM180.879 190.388L181.233 190.742L181.586 190.388L186.812 185.154L187.165 184.801L186.812 184.447L158.827 156.42L158.424 156.017L158.076 156.469C156.587 158.411 154.947 160.23 153.17 161.912L152.797 162.265L153.16 162.628L180.879 190.388Z" fill="white" stroke="#5A4EA0"/>
<rect width="65.9027" height="66.0002" fill="black" fill-opacity="0" transform="translate(88.9688 95.7003)"/>
<rect width="65.9027" height="66.0002" fill="black" fill-opacity="0" transform="translate(88.9688 95.7003)"/>
<path d="M99.1244 141.4H98.259L98.6912 142.15C103.483 150.462 112.335 155.588 121.919 155.601H121.921C131.505 155.588 140.357 150.462 145.149 142.15L145.581 141.4H144.716H99.1244ZM95.9422 135.428L96.0405 135.8H96.4256H147.415H147.8L147.898 135.428C150.6 125.188 146.992 114.317 138.707 107.733L137.896 107.089V108.125V128.2H132.306V104.244V103.907L131.993 103.781C129.84 102.908 127.582 102.32 125.277 102.032L124.715 101.962V102.528V128.2H119.125V102.528V101.962L118.563 102.032C116.258 102.32 114 102.908 111.847 103.781L111.535 103.907V104.244V128.2H105.944V108.125V107.089L105.133 107.733C96.8479 114.317 93.2403 125.188 95.9422 135.428ZM89.4688 128.7C89.4688 110.75 103.998 96.2005 121.92 96.2003C139.834 96.22 154.352 110.759 154.371 128.701C154.371 146.651 139.842 161.201 121.92 161.201C103.998 161.201 89.4688 146.651 89.4688 128.7Z" fill="white" stroke="#5A4EA0"/>
<rect width="164.757" height="138.6" fill="black" fill-opacity="0" transform="translate(19.7708 26.4003)"/>
<rect width="164.757" height="138.6" fill="black" fill-opacity="0" transform="translate(19.7708 26.4003)"/>
<path d="M20.2708 42.9006C20.2813 34.0678 27.4288 26.9108 36.2467 26.9003H168.052C176.87 26.9108 184.017 34.068 184.028 42.9009V148.501C184.029 152.231 182.728 155.839 180.359 158.703L176.162 154.996C177.632 153.156 178.437 150.866 178.437 148.501V42.9003C178.437 37.1572 173.788 32.5003 168.052 32.5003H36.2464C30.51 32.5003 25.861 37.1572 25.861 42.9003V148.501C25.861 154.244 30.51 158.901 36.2464 158.901H78.5832V164.501H36.247C27.4289 164.49 20.2813 157.333 20.2708 148.5V42.9006Z" fill="white" stroke="#5A4EA0"/>
<rect width="6.59027" height="6.60002" fill="black" fill-opacity="0" transform="translate(32.9514 39.6001)"/>
<rect width="6.59027" height="6.60002" fill="black" fill-opacity="0" transform="translate(32.9514 39.6001)"/>
<path d="M33.4514 45.7001V40.1001H39.0417V45.7001H33.4514Z" fill="white" stroke="#5A4EA0"/>
<rect width="6.59027" height="6.60002" fill="black" fill-opacity="0" transform="translate(46.1318 39.6001)"/>
<rect width="6.59027" height="6.60002" fill="black" fill-opacity="0" transform="translate(46.1318 39.6001)"/>
<path d="M46.6318 45.7001V40.1001H52.2221V45.7001H46.6318Z" fill="white" stroke="#5A4EA0"/>
<rect width="6.59027" height="6.60002" fill="black" fill-opacity="0" transform="translate(59.3123 39.6001)"/>
<rect width="6.59027" height="6.60002" fill="black" fill-opacity="0" transform="translate(59.3123 39.6001)"/>
<path d="M59.8123 45.7001V40.1001H65.4025V45.7001H59.8123Z" fill="white" stroke="#5A4EA0"/>
<rect width="6.59027" height="19.8001" fill="black" fill-opacity="0" transform="translate(39.5417 108.9)"/>
<rect width="6.59027" height="19.8001" fill="black" fill-opacity="0" transform="translate(39.5417 108.9)"/>
<path d="M40.0417 128.2V109.4H45.632V128.2H40.0417Z" fill="white" stroke="#5A4EA0"/>
<rect width="6.59027" height="39.6001" fill="black" fill-opacity="0" transform="translate(52.7222 89.1003)"/>
<rect width="6.59027" height="39.6001" fill="black" fill-opacity="0" transform="translate(52.7222 89.1003)"/>
<path d="M53.2222 128.2V89.6003H58.8124V128.2H53.2222Z" fill="white" stroke="#5A4EA0"/>
<rect width="6.59027" height="29.7001" fill="black" fill-opacity="0" transform="translate(65.9028 99.0004)"/>
<rect width="6.59027" height="29.7001" fill="black" fill-opacity="0" transform="translate(65.9028 99.0004)"/>
<path d="M66.4028 128.2V99.5004H71.9931V128.2H66.4028Z" fill="white" stroke="#5A4EA0"/>
</svg>
