<svg width="198" height="198" viewBox="0 0 198 198" fill="none" xmlns="http://www.w3.org/2000/svg">
<rect width="197.707" height="198" fill="black" fill-opacity="0"/>
<rect width="65.9025" height="6.6" fill="black" fill-opacity="0" transform="translate(65.9023 16.5)"/>
<rect width="65.9025" height="6.6" fill="black" fill-opacity="0" transform="translate(65.9023 16.5)"/>
<path d="M66.4023 17H131.305V22.6H66.4023V17Z" fill="white" stroke="#444D95"/>
<rect width="120.272" height="132" fill="black" fill-opacity="0" transform="translate(42.8364 66)"/>
<rect width="120.272" height="132" fill="black" fill-opacity="0" transform="translate(42.8364 66)"/>
<path d="M144.485 112.2V112.7H144.985H151.576C157.657 112.7 162.608 117.657 162.608 123.75C162.608 126.842 161.326 129.633 159.272 131.643L158.906 132L159.272 132.357C161.326 134.367 162.608 137.158 162.608 140.25C162.608 144.679 159.975 148.486 156.2 150.246L155.69 150.484L155.986 150.963C157.035 152.656 157.666 154.627 157.666 156.75C157.666 162.687 152.952 167.513 147.077 167.753L146.316 167.785L146.648 168.471C147.354 169.93 147.78 171.538 147.78 173.25C147.78 179.342 142.829 184.3 136.747 184.3H135.1H121.919H121.419V184.8V197.5H115.829V184.8V184.3H115.329C109.248 184.3 104.296 179.343 104.296 173.25C104.296 171.555 104.712 169.963 105.404 168.516L105.746 167.8H104.953H85.673C84.1287 167.8 82.8779 166.547 82.8779 165V161.7C82.8779 148.687 72.306 138.1 59.312 138.1C57.7677 138.1 56.5169 136.847 56.5169 135.3C56.5169 133.753 57.7677 132.5 59.312 132.5H69.1974C75.5616 132.5 80.9241 128.126 82.4436 122.225L82.6045 121.6H81.9594H52.7218C50.6267 121.6 48.9267 123.306 48.9267 125.4V197.5H43.3364V125.4C43.3364 120.216 47.5477 116 52.7218 116H53.2218V115.5V83H58.812V115.5V116H59.312H85.673C87.2174 116 88.4682 117.253 88.4682 118.8C88.4682 127.029 83.2996 134.073 76.0406 136.844L75.158 137.181L75.9329 137.721C83.5051 143.001 88.4682 151.781 88.4682 161.7V162.2H88.9682H114.839H115.632L115.29 161.484C114.598 160.037 114.182 158.445 114.182 156.75C114.182 152.321 116.815 148.514 120.59 146.754L121.1 146.516L120.804 146.037C119.755 144.344 119.124 142.373 119.124 140.25C119.124 137.158 120.407 134.367 122.461 132.357L122.826 132L122.461 131.643C120.407 129.633 119.124 126.842 119.124 123.75C119.124 117.658 124.075 112.7 130.157 112.7H138.395H138.895V112.2V66.5H144.485V112.2ZM135.1 178.7H136.747C139.75 178.7 142.19 176.255 142.19 173.25C142.19 170.245 139.75 167.8 136.747 167.8H125.215H115.329C112.327 167.8 109.886 170.245 109.886 173.25C109.886 176.255 112.327 178.7 115.329 178.7H118.624H135.1ZM136.747 162.2H146.633C149.635 162.2 152.076 159.755 152.076 156.75C152.076 153.745 149.635 151.3 146.633 151.3H130.157H125.215C122.212 151.3 119.772 153.745 119.772 156.75C119.772 159.755 122.212 162.2 125.215 162.2H136.747ZM146.633 145.7H151.576C154.578 145.7 157.018 143.255 157.018 140.25C157.018 137.245 154.578 134.8 151.576 134.8H130.157C127.155 134.8 124.715 137.245 124.715 140.25C124.715 143.255 127.155 145.7 130.157 145.7H146.633ZM130.157 129.2H151.576C154.578 129.2 157.018 126.755 157.018 123.75C157.018 120.745 154.578 118.3 151.576 118.3H130.157C127.155 118.3 124.715 120.745 124.715 123.75C124.715 126.755 127.155 129.2 130.157 129.2Z" fill="white" stroke="#444D95"/>
<rect width="37.4257" height="30.8919" fill="black" fill-opacity="0" transform="translate(12 29.7)"/>
<rect width="37.4257" height="30.8919" fill="black" fill-opacity="0" transform="translate(12 29.7)"/>
<mask id="path-3-inside-1" fill="white">
<path d="M48.25 34.952C45.9697 35.0568 46.0195 35.0483 45.7617 35.0698L47.1122 31.2231C47.1122 31.2231 42.8968 32.7698 41.8281 33.0465C39.0216 30.5305 34.8498 30.4193 31.8674 32.2476C29.425 33.7452 28.1141 36.3169 28.5513 39.3228C23.798 38.6649 19.7931 36.4176 16.6311 32.6291L15.631 31.4311L14.8837 32.7999C13.9393 34.5294 13.6257 36.5069 14.0004 38.3681C14.1542 39.1316 14.4155 39.8598 14.7775 40.5417L13.9196 40.2102L13.8179 41.6399C13.7147 43.0922 14.1995 44.7875 15.115 46.1745C15.3727 46.5651 15.7046 46.994 16.1253 47.4172L15.6819 47.3493L16.2229 48.9876C16.9339 51.14 18.4108 52.8052 20.3274 53.731C18.4133 54.5411 16.867 55.0581 14.3254 55.892L12 56.6544L14.1478 57.8256C14.9667 58.2722 17.8604 59.7637 20.7196 60.2111C27.075 61.2053 34.2306 60.3957 39.0478 56.0685C43.1053 52.4238 44.4367 47.2392 44.1601 41.844C44.1184 41.0272 44.3427 40.2477 44.7918 39.6494C45.6915 38.4514 48.2445 34.96 48.25 34.952V34.952ZM43.0934 38.3805C42.3475 39.3738 41.9739 40.6424 42.0408 41.9521C42.3199 47.3943 40.8353 51.6147 37.6279 54.4956C33.8813 57.8612 27.8381 59.1822 21.0484 58.12C19.8188 57.9277 18.548 57.4971 17.4962 57.0671C19.6271 56.3358 21.2727 55.684 23.9302 54.4294L27.6401 52.6781L23.5441 52.4166C21.5822 52.2913 19.9485 51.343 18.9443 49.8032C19.4775 49.7723 19.9916 49.6863 20.5036 49.5439L24.41 48.4588L20.4709 47.4966C18.5568 47.0291 17.4658 45.8868 16.8875 45.0107C16.5077 44.435 16.2597 43.8452 16.1109 43.3016C16.5058 43.4072 16.9663 43.4825 17.7089 43.5559L21.3548 43.9156L18.4661 41.668C16.3847 40.0488 15.5505 37.6161 16.162 35.2775C22.658 41.9976 30.2851 41.4926 31.0529 41.6702C30.8839 40.0331 30.8795 40.0292 30.8352 39.8734C29.852 36.4068 32.0068 34.6466 32.9786 34.0508C35.0086 32.8065 38.2309 32.6189 40.4627 34.669C40.9448 35.1114 41.5967 35.2855 42.2068 35.1343C42.7544 34.9986 43.2038 34.8549 43.6438 34.6985L42.7278 37.3074L43.8971 37.3083C43.6764 37.6034 43.4118 37.9568 43.0934 38.3805Z"/>
</mask>
<path d="M48.25 34.952C45.9697 35.0568 46.0195 35.0483 45.7617 35.0698L47.1122 31.2231C47.1122 31.2231 42.8968 32.7698 41.8281 33.0465C39.0216 30.5305 34.8498 30.4193 31.8674 32.2476C29.425 33.7452 28.1141 36.3169 28.5513 39.3228C23.798 38.6649 19.7931 36.4176 16.6311 32.6291L15.631 31.4311L14.8837 32.7999C13.9393 34.5294 13.6257 36.5069 14.0004 38.3681C14.1542 39.1316 14.4155 39.8598 14.7775 40.5417L13.9196 40.2102L13.8179 41.6399C13.7147 43.0922 14.1995 44.7875 15.115 46.1745C15.3727 46.5651 15.7046 46.994 16.1253 47.4172L15.6819 47.3493L16.2229 48.9876C16.9339 51.14 18.4108 52.8052 20.3274 53.731C18.4133 54.5411 16.867 55.0581 14.3254 55.892L12 56.6544L14.1478 57.8256C14.9667 58.2722 17.8604 59.7637 20.7196 60.2111C27.075 61.2053 34.2306 60.3957 39.0478 56.0685C43.1053 52.4238 44.4367 47.2392 44.1601 41.844C44.1184 41.0272 44.3427 40.2477 44.7918 39.6494C45.6915 38.4514 48.2445 34.96 48.25 34.952V34.952ZM43.0934 38.3805C42.3475 39.3738 41.9739 40.6424 42.0408 41.9521C42.3199 47.3943 40.8353 51.6147 37.6279 54.4956C33.8813 57.8612 27.8381 59.1822 21.0484 58.12C19.8188 57.9277 18.548 57.4971 17.4962 57.0671C19.6271 56.3358 21.2727 55.684 23.9302 54.4294L27.6401 52.6781L23.5441 52.4166C21.5822 52.2913 19.9485 51.343 18.9443 49.8032C19.4775 49.7723 19.9916 49.6863 20.5036 49.5439L24.41 48.4588L20.4709 47.4966C18.5568 47.0291 17.4658 45.8868 16.8875 45.0107C16.5077 44.435 16.2597 43.8452 16.1109 43.3016C16.5058 43.4072 16.9663 43.4825 17.7089 43.5559L21.3548 43.9156L18.4661 41.668C16.3847 40.0488 15.5505 37.6161 16.162 35.2775C22.658 41.9976 30.2851 41.4926 31.0529 41.6702C30.8839 40.0331 30.8795 40.0292 30.8352 39.8734C29.852 36.4068 32.0068 34.6466 32.9786 34.0508C35.0086 32.8065 38.2309 32.6189 40.4627 34.669C40.9448 35.1114 41.5967 35.2855 42.2068 35.1343C42.7544 34.9986 43.2038 34.8549 43.6438 34.6985L42.7278 37.3074L43.8971 37.3083C43.6764 37.6034 43.4118 37.9568 43.0934 38.3805Z" fill="white"/>
<path d="M45.7617 35.0698L42.9311 34.076L41.3974 38.4445L46.0113 38.0594L45.7617 35.0698ZM47.1122 31.2231L49.9428 32.2169L52.0496 26.216L46.0788 28.4067L47.1122 31.2231ZM41.8281 33.0465L39.8256 35.2803L41.0231 36.3538L42.5801 35.9507L41.8281 33.0465ZM31.8674 32.2476L30.2995 29.6899L30.2992 29.6901L31.8674 32.2476ZM28.5513 39.3228L28.14 42.2944L32.0948 42.8418L31.5201 38.8909L28.5513 39.3228ZM16.6311 32.6291L18.9343 30.7068L18.9341 30.7066L16.6311 32.6291ZM15.631 31.4311L17.9341 29.5086L15.1098 26.1253L12.9979 29.9935L15.631 31.4311ZM14.8837 32.7999L17.5167 34.2377L17.5169 34.2374L14.8837 32.7999ZM14.0004 38.3681L11.0594 38.9602L11.0594 38.9604L14.0004 38.3681ZM14.7775 40.5417L13.6961 43.34L21.1994 46.2399L17.4273 39.135L14.7775 40.5417ZM13.9196 40.2102L15.0011 37.4119L11.2154 35.9488L10.9272 39.9971L13.9196 40.2102ZM13.8179 41.6399L10.8254 41.4268L10.8254 41.4273L13.8179 41.6399ZM15.115 46.1745L17.6189 44.5221L17.6187 44.5219L15.115 46.1745ZM16.1253 47.4172L15.6714 50.3826L24.6732 51.7605L18.2528 45.3021L16.1253 47.4172ZM15.6819 47.3493L16.1358 44.3838L11.2989 43.6435L12.8332 48.29L15.6819 47.3493ZM16.2229 48.9876L13.3742 49.9282L13.3743 49.9286L16.2229 48.9876ZM20.3274 53.731L21.4967 56.4937L27.5982 53.9112L21.6322 51.0296L20.3274 53.731ZM14.3254 55.892L15.26 58.7426L15.2606 58.7425L14.3254 55.892ZM12 56.6544L11.0653 53.8037L4.4711 55.9658L10.5637 59.2882L12 56.6544ZM14.1478 57.8256L15.5842 55.1918L15.5841 55.1918L14.1478 57.8256ZM20.7196 60.2111L20.2557 63.1751L20.2559 63.1751L20.7196 60.2111ZM39.0478 56.0685L41.0526 58.3003L41.0526 58.3003L39.0478 56.0685ZM44.1601 41.844L41.1641 41.9972L41.1641 41.9976L44.1601 41.844ZM44.7918 39.6494L42.393 37.8479L42.3926 37.8483L44.7918 39.6494ZM43.0934 38.3805L40.6949 36.5785L40.6945 36.5791L43.0934 38.3805ZM42.0408 41.9521L39.0447 42.1052L39.0448 42.1058L42.0408 41.9521ZM37.6279 54.4956L35.6232 52.2638L35.6232 52.2639L37.6279 54.4956ZM21.0484 58.12L21.5121 55.156L21.5118 55.156L21.0484 58.12ZM17.4962 57.0671L16.5224 54.2295L8.96894 56.8216L16.3608 59.8439L17.4962 57.0671ZM23.9302 54.4294L25.2109 57.1423L25.2109 57.1423L23.9302 54.4294ZM27.6401 52.6781L28.9208 55.391L27.8312 49.6842L27.6401 52.6781ZM23.5441 52.4166L23.7353 49.4227L23.7352 49.4227L23.5441 52.4166ZM18.9443 49.8032L18.7708 46.8082L13.6046 47.1076L16.4315 51.442L18.9443 49.8032ZM20.5036 49.5439L19.7006 46.6534L19.6999 46.6536L20.5036 49.5439ZM24.41 48.4588L25.213 51.3493L36.2899 48.2723L25.1219 45.5444L24.41 48.4588ZM20.4709 47.4966L19.7591 50.4109L19.7591 50.4109L20.4709 47.4966ZM16.8875 45.0107L14.3832 46.6625L14.3837 46.6634L16.8875 45.0107ZM16.1109 43.3016L16.8861 40.4035L11.8378 39.053L13.2173 44.0935L16.1109 43.3016ZM17.7089 43.5559L17.4139 46.5413L17.4143 46.5414L17.7089 43.5559ZM21.3548 43.9156L21.0603 46.9011L31.3868 47.9199L23.1971 41.5479L21.3548 43.9156ZM18.4661 41.668L20.3083 39.3003L20.3082 39.3001L18.4661 41.668ZM16.162 35.2775L18.319 33.1925L14.6097 29.3552L13.2596 34.5186L16.162 35.2775ZM31.0529 41.6702L30.3766 44.593L34.4682 45.5397L34.037 41.3622L31.0529 41.6702ZM30.8352 39.8734L27.9491 40.6919L27.9493 40.6927L30.8352 39.8734ZM32.9786 34.0508L31.4108 31.4931L31.4106 31.4932L32.9786 34.0508ZM40.4627 34.669L38.4333 36.8784L38.4341 36.8791L40.4627 34.669ZM42.2068 35.1343L42.9282 38.0463L42.9284 38.0462L42.2068 35.1343ZM43.6438 34.6985L46.4744 35.6923L48.5539 29.7693L42.639 31.8718L43.6438 34.6985ZM42.7278 37.3074L39.8972 36.3136L38.4961 40.3045L42.7257 40.3074L42.7278 37.3074ZM43.8971 37.3083L46.2997 39.1048L49.8831 34.3125L43.8993 34.3083L43.8971 37.3083ZM48.1122 31.9552C45.9161 32.0561 45.8442 32.0525 45.5122 32.0802L46.0113 38.0594C46.1948 38.0441 46.0234 38.0575 48.3878 37.9488L48.1122 31.9552ZM48.5924 36.0636L49.9428 32.2169L44.2816 30.2294L42.9311 34.076L48.5924 36.0636ZM47.1122 31.2231C46.0788 28.4067 46.0789 28.4067 46.0789 28.4067C46.0788 28.4067 46.0788 28.4067 46.0788 28.4067C46.0787 28.4068 46.0786 28.4068 46.0783 28.4069C46.0779 28.4071 46.0773 28.4073 46.0763 28.4076C46.0745 28.4083 46.0716 28.4094 46.0678 28.4108C46.0602 28.4136 46.0487 28.4178 46.0335 28.4233C46.0032 28.4344 45.9582 28.4509 45.9004 28.472C45.7848 28.5142 45.618 28.5749 45.4144 28.6487C45.0067 28.7965 44.4532 28.9961 43.8679 29.2037C42.6232 29.6452 41.4519 30.045 41.0762 30.1422L42.5801 35.9507C43.2731 35.7713 44.7437 35.2594 45.8739 34.8584C46.4761 34.6448 47.0432 34.4403 47.4593 34.2895C47.6676 34.214 47.8385 34.1518 47.9576 34.1083C48.0171 34.0865 48.0638 34.0695 48.0957 34.0578C48.1117 34.052 48.124 34.0475 48.1324 34.0444C48.1365 34.0429 48.1398 34.0417 48.142 34.0409C48.1431 34.0405 48.1439 34.0401 48.1445 34.0399C48.1448 34.0398 48.1451 34.0397 48.1452 34.0397C48.1453 34.0396 48.1454 34.0396 48.1455 34.0396C48.1455 34.0396 48.1456 34.0395 47.1122 31.2231ZM43.8307 30.8127C39.941 27.3257 34.2996 27.2378 30.2995 29.6899L33.4353 34.8053C35.4001 33.6008 38.1022 33.7353 39.8256 35.2803L43.8307 30.8127ZM30.2992 29.6901C26.8717 31.7917 24.9665 35.5192 25.5826 39.7546L31.5201 38.8909C31.2617 37.1146 31.9783 35.6986 33.4355 34.8051L30.2992 29.6901ZM28.9626 36.3511C24.9703 35.7985 21.6324 33.9395 18.9343 30.7068L14.3279 34.5514C17.9537 38.8957 22.6257 41.5312 28.14 42.2944L28.9626 36.3511ZM18.9341 30.7066L17.9341 29.5086L13.328 33.3536L14.3281 34.5516L18.9341 30.7066ZM12.9979 29.9935L12.2506 31.3623L17.5169 34.2374L18.2642 32.8687L12.9979 29.9935ZM12.2508 31.362C10.982 33.6855 10.5398 36.3794 11.0594 38.9602L16.9414 37.7759C16.7116 36.6345 16.8966 35.3733 17.5167 34.2377L12.2508 31.362ZM11.0594 38.9604C11.2707 40.0091 11.6304 41.0116 12.1278 41.9485L17.4273 39.135C17.2006 38.7081 17.0377 38.2541 16.9414 37.7758L11.0594 38.9604ZM15.859 37.7434L15.0011 37.4119L12.8382 43.0084L13.6961 43.34L15.859 37.7434ZM10.9272 39.9971L10.8254 41.4268L16.8103 41.8529L16.9121 40.4232L10.9272 39.9971ZM10.8254 41.4273C10.669 43.6292 11.3857 45.9705 12.6112 47.8271L17.6187 44.5219C17.0133 43.6046 16.7604 42.5552 16.8103 41.8524L10.8254 41.4273ZM12.611 47.8269C12.964 48.3618 13.4191 48.9502 13.9977 49.5322L18.2528 45.3021C17.9901 45.0379 17.7814 44.7684 17.6189 44.5221L12.611 47.8269ZM16.5792 44.4517L16.1358 44.3838L15.228 50.3148L15.6714 50.3826L16.5792 44.4517ZM12.8332 48.29L13.3742 49.9282L19.0716 48.0469L18.5306 46.4086L12.8332 48.29ZM13.3743 49.9286C14.3355 52.8384 16.3608 55.1467 19.0226 56.4324L21.6322 51.0296C20.4608 50.4638 19.5323 49.4415 19.0715 48.0465L13.3743 49.9286ZM19.1581 50.9683C17.3723 51.7241 15.9347 52.2066 13.3901 53.0414L15.2606 58.7425C17.7993 57.9095 19.4542 57.3582 21.4967 56.4937L19.1581 50.9683ZM13.3907 53.0413L11.0653 53.8037L12.9347 59.5051L15.26 58.7426L13.3907 53.0413ZM10.5637 59.2882L12.7115 60.4595L15.5841 55.1918L13.4363 54.0206L10.5637 59.2882ZM12.7115 60.4594C13.5753 60.9305 16.853 62.6426 20.2557 63.1751L21.1834 57.2472C18.8679 56.8849 16.3581 55.6139 15.5842 55.1918L12.7115 60.4594ZM20.2559 63.1751C27.0385 64.236 35.2795 63.4861 41.0526 58.3003L37.0431 53.8367C33.1817 57.3053 27.1116 58.1745 21.1832 57.2472L20.2559 63.1751ZM41.0526 58.3003C46.0064 53.8504 47.4612 47.6405 47.1562 41.6904L41.1641 41.9976C41.4122 46.838 40.2043 50.9971 37.0431 53.8367L41.0526 58.3003ZM47.1562 41.6908C47.1467 41.5049 47.2038 41.4334 47.191 41.4504L42.3926 37.8483C41.4815 39.062 41.09 40.5496 41.1641 41.9972L47.1562 41.6908ZM47.1907 41.4509C48.0884 40.2555 50.6744 36.7207 50.7176 36.6582L45.7824 33.2458C45.8146 33.1993 43.2946 36.6472 42.393 37.8479L47.1907 41.4509ZM40.6945 36.5791C39.5018 38.1674 38.9442 40.1371 39.0447 42.1052L45.0369 41.799C45.0036 41.1477 45.1932 40.5803 45.4924 40.1819L40.6945 36.5791ZM39.0448 42.1058C39.2908 46.9041 37.9846 50.1427 35.6232 52.2638L39.6327 56.7275C43.6859 53.0867 45.349 47.8844 45.0369 41.7985L39.0448 42.1058ZM35.6232 52.2639C32.7696 54.8272 27.755 56.1327 21.5121 55.156L20.5847 61.0839C27.9212 62.2317 34.993 60.8953 39.6327 56.7274L35.6232 52.2639ZM21.5118 55.156C20.6071 55.0145 19.5787 54.6774 18.6316 54.2902L16.3608 59.8439C17.5173 60.3168 19.0305 60.8409 20.5849 61.0839L21.5118 55.156ZM18.4699 59.9046C20.7085 59.1364 22.4564 58.4426 25.2109 57.1423L22.6495 51.7165C20.0889 52.9253 18.5457 53.5352 16.5224 54.2295L18.4699 59.9046ZM25.2109 57.1423L28.9208 55.391L26.3594 49.9652L22.6495 51.7165L25.2109 57.1423ZM27.8312 49.6842L23.7353 49.4227L23.353 55.4105L27.4489 55.672L27.8312 49.6842ZM23.7352 49.4227C22.6761 49.3551 21.9221 48.8774 21.4571 48.1644L16.4315 51.442C17.9749 53.8086 20.4882 55.2276 23.353 55.4105L23.7352 49.4227ZM19.1178 52.7982C19.8663 52.7548 20.5916 52.6333 21.3072 52.4343L19.6999 46.6536C19.3917 46.7393 19.0887 46.7898 18.7708 46.8082L19.1178 52.7982ZM21.3065 52.4345L25.213 51.3493L23.6071 45.5682L19.7006 46.6534L21.3065 52.4345ZM25.1219 45.5444L21.1828 44.5823L19.7591 50.4109L23.6982 51.3731L25.1219 45.5444ZM21.1828 44.5823C20.1865 44.3389 19.6694 43.7795 19.3912 43.358L14.3837 46.6634C15.2621 47.9941 16.9272 49.7192 19.7591 50.4109L21.1828 44.5823ZM19.3918 43.3589C19.1991 43.0668 19.076 42.7711 19.0045 42.5097L13.2173 44.0935C13.4433 44.9194 13.8164 45.8032 14.3832 46.6625L19.3918 43.3589ZM15.3356 46.1997C15.9594 46.3665 16.6045 46.4614 17.4139 46.5413L18.0039 40.5704C17.3281 40.5037 17.0522 40.4479 16.8861 40.4035L15.3356 46.1997ZM17.4143 46.5414L21.0603 46.9011L21.6494 40.9301L18.0034 40.5704L17.4143 46.5414ZM23.1971 41.5479L20.3083 39.3003L16.6239 44.0357L19.5126 46.2833L23.1971 41.5479ZM20.3082 39.3001C19.117 38.3735 18.7741 37.1468 19.0645 36.0364L13.2596 34.5186C12.327 38.0854 13.6523 41.7241 16.6241 44.0359L20.3082 39.3001ZM14.005 37.3625C17.7097 41.195 21.7638 42.9844 24.9967 43.8297C26.6067 44.2507 28.0071 44.4364 29.0487 44.5295C29.5669 44.5758 29.9988 44.5993 30.2932 44.6156C30.4508 44.6243 30.5392 44.6294 30.5993 44.6341C30.7087 44.6425 30.5752 44.639 30.3766 44.593L31.7292 38.7474C31.4345 38.6793 31.1515 38.6588 31.0617 38.6519C30.9225 38.6411 30.762 38.6323 30.6249 38.6247C30.3299 38.6084 29.9892 38.5897 29.5829 38.5533C28.7755 38.4812 27.7191 38.3398 26.5144 38.0249C24.1178 37.3982 21.1103 36.0801 18.319 33.1925L14.005 37.3625ZM34.037 41.3622C33.954 40.5579 33.907 40.1112 33.8747 39.8491C33.8586 39.7186 33.8387 39.5702 33.8093 39.4187C33.7731 39.2321 33.7321 39.0926 33.7212 39.054L27.9493 40.6927C27.9604 40.732 27.9366 40.6514 27.919 40.5606C27.9082 40.5048 27.9082 40.4889 27.9198 40.5835C27.943 40.7716 27.9828 41.1454 28.0687 41.9782L34.037 41.3622ZM33.7214 39.0548C33.4476 38.0896 33.6442 37.611 33.7837 37.3649C33.9792 37.02 34.3022 36.7583 34.5466 36.6084L31.4106 31.4932C30.6832 31.9392 29.4429 32.8554 28.5639 34.4062C27.6288 36.0558 27.2396 38.1905 27.9491 40.6919L33.7214 39.0548ZM34.5464 36.6085C35.6836 35.9115 37.3882 35.9184 38.4333 36.8784L42.4922 32.4596C39.0735 29.3194 34.3336 29.7015 31.4108 31.4931L34.5464 36.6085ZM38.4341 36.8791C39.6203 37.9679 41.294 38.4512 42.9282 38.0463L41.4853 32.2224C41.8993 32.1198 42.2693 32.255 42.4913 32.4588L38.4341 36.8791ZM42.9284 38.0462C43.5931 37.8815 44.139 37.7064 44.6486 37.5252L42.639 31.8718C42.2686 32.0034 41.9157 32.1157 41.4851 32.2224L42.9284 38.0462ZM40.8132 33.7047L39.8972 36.3136L45.5584 38.3013L46.4744 35.6923L40.8132 33.7047ZM42.7257 40.3074L43.895 40.3083L43.8993 34.3083L42.7299 34.3074L42.7257 40.3074ZM41.4945 35.5117C41.2751 35.8053 41.0118 36.1568 40.6949 36.5785L45.4919 40.1825C45.8118 39.7568 46.0778 39.4016 46.2997 39.1048L41.4945 35.5117Z" fill="white" mask="url(#path-3-inside-1)"/>
<rect width="19.7707" height="33" fill="black" fill-opacity="0" transform="translate(88.9685 49.5)"/>
<rect width="19.7707" height="33" fill="black" fill-opacity="0" transform="translate(88.9685 49.5)"/>
<path d="M95.5588 63.2H96.0588V62.7V52.8C96.0588 51.2529 97.3095 50 98.8539 50H108.239V55.6H102.149H101.649V56.1V62.7V63.2H102.149H108.239V68.8H102.149H101.649V69.3V82H96.0588V69.3V68.8H95.5588H89.4685V63.2H95.5588Z" fill="white" stroke="#444D95"/>
<rect width="59.3122" height="59.4" fill="black" fill-opacity="0" transform="translate(69.1978 36.3002)"/>
<rect width="59.3122" height="59.4" fill="black" fill-opacity="0" transform="translate(69.1978 36.3002)"/>
<path d="M79.0831 36.8002H118.625C123.799 36.8002 128.01 41.0166 128.01 46.2002V85.8002C128.01 90.9837 123.799 95.2002 118.625 95.2002H79.0831C73.909 95.2002 69.6978 90.9837 69.6978 85.8002V46.2002C69.6978 41.0166 73.909 36.8002 79.0831 36.8002ZM118.625 89.6002C120.72 89.6002 122.42 87.8946 122.42 85.8002V46.2002C122.42 44.1058 120.72 42.4002 118.625 42.4002H79.0831C76.988 42.4002 75.288 44.1058 75.288 46.2002V85.8002C75.288 87.8946 76.988 89.6002 79.0831 89.6002H118.625Z" fill="white" stroke="#444D95"/>
<rect width="59.3122" height="59.4" fill="black" fill-opacity="0" transform="translate(0 16.5)"/>
<rect width="59.3122" height="59.4" fill="black" fill-opacity="0" transform="translate(0 16.5)"/>
<path d="M9.88537 17H49.4269C54.601 17 58.8122 21.2164 58.8122 26.4V66C58.8122 71.1836 54.601 75.4 49.4269 75.4H9.88537C4.71125 75.4 0.5 71.1836 0.5 66V26.4C0.5 21.2164 4.71125 17 9.88537 17ZM49.4269 69.8C51.5219 69.8 53.222 68.0944 53.222 66V26.4C53.222 24.3056 51.5219 22.6 49.4269 22.6H9.88537C7.79029 22.6 6.09025 24.3056 6.09025 26.4V66C6.09025 68.0944 7.79029 69.8 9.88537 69.8H49.4269Z" fill="white" stroke="#444D95"/>
<rect width="59.3122" height="59.4" fill="black" fill-opacity="0" transform="translate(138.395)"/>
<rect width="59.3122" height="59.4" fill="black" fill-opacity="0" transform="translate(138.395)"/>
<path d="M144.986 32.5H144.486V33V49.5C144.486 51.5944 146.186 53.3 148.281 53.3H187.822C189.917 53.3 191.617 51.5944 191.617 49.5V33V32.5H191.117H184.194H183.785L183.704 32.9003C182.219 40.1945 175.764 45.7 168.051 45.7C160.339 45.7 153.884 40.1945 152.399 32.9003L152.317 32.5H151.909H144.986ZM191.117 26.9H191.617V26.4V9.9C191.617 7.80559 189.917 6.1 187.822 6.1H148.281C146.186 6.1 144.486 7.80559 144.486 9.9V26.4V26.9H144.986H151.909H152.317L152.399 26.4997C153.884 19.2055 160.339 13.7 168.051 13.7C175.764 13.7 182.219 19.2055 183.704 26.4997L183.785 26.9H184.194H191.117ZM148.281 0.5H187.822C192.996 0.5 197.208 4.71642 197.208 9.9V49.5C197.208 54.6836 192.996 58.9 187.822 58.9H148.281C143.107 58.9 138.895 54.6836 138.895 49.5V9.9C138.895 4.71642 143.107 0.5 148.281 0.5ZM168.051 19.3C162.324 19.3 157.666 23.9655 157.666 29.7C157.666 35.4345 162.324 40.1 168.051 40.1C173.779 40.1 178.437 35.4345 178.437 29.7C178.437 23.9655 173.779 19.3 168.051 19.3Z" fill="white" stroke="#444D95"/>
<rect width="6.59025" height="6.6" fill="black" fill-opacity="0" transform="translate(95.5586 135.3)"/>
<rect width="6.59025" height="6.6" fill="black" fill-opacity="0" transform="translate(95.5586 135.3)"/>
<path d="M96.0586 135.8H101.649V141.4H96.0586V135.8Z" fill="white" stroke="#444D95"/>
</svg>
