<svg width="200" height="200" viewBox="0 0 200 200" fill="none" xmlns="http://www.w3.org/2000/svg">
<path d="M183.333 0H16.6672C7.46613 0.0106812 0.0106812 7.46613 0 16.6672V183.333C0.0106812 192.534 7.46613 199.989 16.6672 200H183.333C192.534 199.989 199.989 192.534 200 183.333V16.6672C199.989 7.46613 192.534 0.0106812 183.333 0V0ZM16.6672 6.66656H183.333C188.857 6.66656 193.333 11.1435 193.333 16.6672V26.6663H6.66656V16.6672C6.66656 11.1435 11.1435 6.66656 16.6672 6.66656ZM183.333 193.333H16.6672C11.1435 193.333 6.66656 188.857 6.66656 183.333V33.3328H193.333V183.333C193.333 188.857 188.857 193.333 183.333 193.333Z" fill="white"/>
<path d="M16.668 13.333H23.3345V19.9996H16.668V13.333Z" fill="white"/>
<path d="M30 13.333H36.6666V19.9996H30V13.333Z" fill="white"/>
<path d="M43.334 13.333H50.0005V19.9996H43.334V13.333Z" fill="white"/>
<path d="M140.627 69.22C119.246 49.5103 86.806 47.9813 63.6676 65.593C62.1844 66.7298 60.744 67.9261 59.36 69.22C34.9154 91.5726 33.2187 129.511 55.5713 153.955C76.5704 176.92 111.643 180.01 136.334 161.073C137.818 159.937 139.257 158.74 140.641 157.446C165.001 135.057 166.6 97.1573 144.21 72.7967C143.071 71.5562 141.88 70.366 140.641 69.2261L140.627 69.22ZM138.15 150.467C135.221 148.036 132.067 145.891 128.73 144.06C131.523 135.188 133.043 125.966 133.243 116.667H153.16C152.355 129.364 147.029 141.354 138.15 150.467ZM132.72 155.397C132.207 155.8 131.678 156.171 131.15 156.554C130.39 157.103 129.627 157.643 128.844 158.15C128.281 158.513 127.707 158.853 127.133 159.197C126.348 159.663 125.557 160.114 124.747 160.53C124.153 160.843 123.551 161.144 122.943 161.433C122.127 161.827 121.297 162.193 120.461 162.543C119.893 162.776 119.324 163.01 118.75 163.21C121.889 159.302 124.457 154.965 126.377 150.333C128.778 151.695 131.069 153.244 133.226 154.964C133.054 155.11 132.894 155.263 132.72 155.397ZM77.0541 161.437C76.4529 161.15 75.8593 160.852 75.2704 160.544C74.454 160.114 73.6499 159.657 72.8564 159.184C72.2934 158.85 71.7303 158.518 71.1902 158.157C70.3967 157.643 69.6231 157.094 68.8571 156.537C68.3368 156.16 67.8134 155.794 67.3068 155.397C67.1328 155.264 66.9741 155.11 66.8002 154.974C68.9502 153.252 71.2313 151.7 73.6239 150.334C75.542 154.97 78.11 159.308 81.2503 163.22C80.6811 163.007 80.1135 162.778 79.5504 162.553C78.7066 162.201 77.8704 161.83 77.0434 161.437H77.0541ZM61.8502 76.1994C64.7799 78.6301 67.9339 80.7755 71.271 82.6066C68.4771 91.478 66.9574 100.702 66.7575 110.001H46.8402C47.6458 97.3023 52.9712 85.312 61.8502 76.1994ZM67.2808 71.2708C67.7935 70.8665 68.323 70.4972 68.851 70.1127C69.6109 69.5634 70.3738 69.0232 71.1596 68.5166C71.7196 68.1534 72.2934 67.8132 72.864 67.4729C73.6499 67.0075 74.4433 66.5543 75.2536 66.1408C75.8471 65.8265 76.4499 65.5274 77.0572 65.2375C77.8735 64.8438 78.7036 64.4761 79.5398 64.1267C80.1074 63.8932 80.6765 63.6597 81.2503 63.4598C78.1115 67.3676 75.5435 71.7026 73.6239 76.3337C71.2222 74.9726 68.9319 73.4238 66.7727 71.7042C66.9467 71.5562 67.1069 71.4036 67.2808 71.2708ZM122.946 65.2299C123.548 65.5167 124.141 65.8143 124.73 66.124C125.547 66.5528 126.351 67.0106 127.144 67.4836C127.707 67.8162 128.27 68.1504 128.81 68.5105C129.604 69.0232 130.377 69.5725 131.143 70.1295C131.664 70.5063 132.187 70.8726 132.694 71.2693C132.868 71.4036 133.026 71.5562 133.2 71.6935C131.05 73.4162 128.769 74.9665 126.377 76.3337C124.459 71.6981 121.891 67.3585 118.75 63.4461C119.319 63.6597 119.887 63.8901 120.45 64.1129C121.294 64.4669 122.13 64.8362 122.957 65.2299H122.946ZM96.6678 83.194C90.8221 82.8324 85.0787 81.5064 79.6664 79.2695C83.9099 69.217 89.9371 62.2529 96.6678 60.4859V83.194ZM96.6678 89.8606V110.001H73.421C73.6529 101.711 74.9987 93.4891 77.4203 85.5561C83.5543 88.0433 90.0576 89.4913 96.6678 89.8438V89.8606ZM96.6678 116.667V136.824C90.0531 137.174 83.5421 138.623 77.4035 141.11C74.9881 133.177 73.6483 124.956 73.421 116.667H96.6678ZM96.6678 143.474V166.18C89.9478 164.414 83.9206 157.451 79.6664 147.397C85.0787 145.16 90.8221 143.834 96.6678 143.474ZM103.333 143.474C109.178 143.834 114.922 145.16 120.334 147.397C116.091 157.451 110.063 164.397 103.333 166.18V143.474ZM103.333 136.807V116.667H126.58C126.352 124.956 125.012 133.177 122.597 141.11C116.458 138.623 109.947 137.174 103.333 136.824V136.807ZM103.333 110.001V89.8438C109.947 89.4929 116.458 88.0448 122.597 85.5561C125.012 93.4891 126.352 101.711 126.58 109.999H103.333V110.001ZM103.333 83.194V60.4874C110.053 62.2529 116.08 69.217 120.334 79.271C114.922 81.5064 109.178 82.8324 103.333 83.194ZM66.7575 116.667C66.9574 125.966 68.4771 135.188 71.271 144.06C67.9324 145.891 64.7784 148.036 61.8502 150.467C52.9696 141.356 47.6443 129.366 46.8402 116.667H66.7575ZM133.243 110.001C133.043 100.702 131.523 91.478 128.73 82.6066C132.068 80.7755 135.222 78.6301 138.15 76.1994C147.031 85.3104 152.356 97.3023 153.16 109.999H133.243V110.001Z" fill="white"/>
</svg>
