<svg width="60" height="60" viewBox="0 0 60 60" fill="none" xmlns="http://www.w3.org/2000/svg">
<path fill-rule="evenodd" clip-rule="evenodd" d="M0 0V60H60V0H0ZM46.5166 21.5287C46.5328 21.8943 46.5411 22.262 46.5411 22.6311C46.5411 33.893 37.9695 46.8785 22.2942 46.8785C17.4815 46.8785 13.0019 45.4679 9.23064 43.0494C9.89736 43.1287 10.5756 43.169 11.2636 43.169C15.2564 43.169 18.9309 41.8067 21.8476 39.5205C18.1184 39.452 14.971 36.9881 13.8864 33.6022C14.407 33.7021 14.9409 33.7556 15.49 33.7556C16.2673 33.7556 17.0202 33.6509 17.7353 33.4565C13.8369 32.6734 10.8992 29.2292 10.8992 25.1003C10.8992 25.0643 10.8992 25.0286 10.9 24.993C12.0488 25.6312 13.3627 26.0147 14.7599 26.059C12.473 24.5308 10.9689 21.9222 10.9689 18.9658C10.9689 17.4038 11.3892 15.9401 12.1229 14.6811C16.3259 19.8373 22.6055 23.2299 29.6881 23.5857C29.5427 22.9617 29.467 22.3112 29.467 21.6434C29.467 16.9373 33.283 13.1217 37.9891 13.1217C40.4404 13.1217 42.6553 14.1564 44.2097 15.8126C46.1507 15.4308 47.9747 14.7212 49.6213 13.7447C48.9852 15.7349 47.6339 17.4046 45.8743 18.4596C47.5983 18.2535 49.2406 17.7952 50.769 17.1174C49.6267 18.8263 48.182 20.3273 46.5166 21.5287Z" fill="#11497B"/>
</svg>
