<svg width="200" height="200" viewBox="0 0 200 200" fill="none" xmlns="http://www.w3.org/2000/svg">
<path d="M183.333 0H16.6672C7.46613 0.0106812 0.0106812 7.46613 0 16.6672V183.333C0.0106812 192.534 7.46613 199.989 16.6672 200H183.333C192.534 199.989 199.989 192.534 200 183.333V16.6672C199.989 7.46613 192.534 0.0106812 183.333 0V0ZM16.6672 6.66656H183.333C188.857 6.66656 193.333 11.1435 193.333 16.6672V26.6663H6.66656V16.6672C6.66656 11.1435 11.1435 6.66656 16.6672 6.66656ZM183.333 193.333H16.6672C11.1435 193.333 6.66656 188.857 6.66656 183.333V33.3328H193.333V183.333C193.333 188.857 188.857 193.333 183.333 193.333Z" fill="white"/>
<path d="M16.6665 13.333H23.3331V19.9996H16.6665V13.333Z" fill="white"/>
<path d="M30.001 13.333H36.6675V19.9996H30.001V13.333Z" fill="white"/>
<path d="M43.3325 13.333H49.9991V19.9996H43.3325V13.333Z" fill="white"/>
<path d="M66.6667 113.333C55.6209 113.333 46.6655 122.287 46.6655 133.333C46.6655 144.379 55.6209 153.334 66.6667 153.334C77.7126 153.334 86.6664 144.379 86.6664 133.333C86.6558 122.293 77.708 113.344 66.6667 113.333ZM66.6667 146.666C59.3029 146.666 53.3336 140.697 53.3336 133.333C53.3336 125.969 59.3029 120 66.6667 120C74.0306 120 79.9999 125.969 79.9999 133.333C79.9999 140.697 74.0306 146.666 66.6667 146.666Z" fill="white"/>
<path d="M109.999 120H98.856L106.736 112.12C108.037 110.819 108.037 108.708 106.736 107.407L92.5922 93.2634C91.2906 91.9618 89.1804 91.9618 87.8788 93.2634L79.9991 101.143V90.001C79.9991 88.1593 78.5068 86.667 76.6651 86.667H56.6654C54.8252 86.667 53.3329 88.1593 53.3329 90.001V101.143L45.4517 93.2634C44.1501 91.9618 42.0399 91.9618 40.7383 93.2634L26.5949 107.407C25.2949 108.708 25.2949 110.819 26.5949 112.12L34.4761 120H23.3326C21.4908 120 19.9985 121.492 19.9985 123.334V143.334C19.9985 145.174 21.4908 146.666 23.3326 146.666H34.4761L26.5949 154.547C25.2949 155.849 25.2949 157.959 26.5949 159.261L40.7383 173.404C42.0399 174.704 44.1501 174.704 45.4517 173.404L53.3329 165.523V176.666C53.3329 178.508 54.8252 180 56.6654 180H76.6651C78.5068 180 79.9991 178.508 79.9991 176.666V165.523L87.8788 173.404C89.1804 174.704 91.2906 174.704 92.5922 173.404L106.736 159.261C108.037 157.959 108.037 155.849 106.736 154.547L98.856 146.668H109.999C111.84 146.668 113.332 145.174 113.332 143.334V123.334C113.332 121.492 111.84 120 109.999 120ZM106.665 140H94.9253C93.5139 140 92.255 140.888 91.782 142.217C91.4692 143.099 91.1091 143.962 90.7062 144.806C90.102 146.083 90.369 147.603 91.3715 148.596L99.6662 156.903L90.2347 166.333L81.9324 158.026C80.9376 157.022 79.4163 156.755 78.1391 157.359C77.2968 157.764 76.4332 158.122 75.5527 158.434C74.2222 158.905 73.3326 160.162 73.3326 161.574V173.334H59.9995V161.594C59.9995 160.182 59.1129 158.923 57.7823 158.45C56.9004 158.138 56.0367 157.778 55.1929 157.373C53.9158 156.77 52.3975 157.037 51.4026 158.04L43.0958 166.333L33.6658 156.903L41.9697 148.601C42.9737 147.604 43.2407 146.085 42.6349 144.806C42.2321 143.964 41.8735 143.1 41.5623 142.22C41.0892 140.886 39.8273 139.996 38.4128 140H26.6651V126.666H38.4052C39.8167 126.668 41.0755 125.78 41.5485 124.451C41.8629 123.569 42.2214 122.704 42.6258 121.86C43.2285 120.583 42.9615 119.064 41.959 118.071L33.6658 109.764L43.0958 100.334L51.3996 108.637C52.3945 109.641 53.9142 109.908 55.1929 109.303C56.0352 108.901 56.8989 108.542 57.7793 108.231C59.1129 107.758 60.0025 106.494 59.9995 105.08V93.3336H73.3326V105.074C73.3311 106.485 74.2191 107.744 75.5482 108.217C76.4301 108.53 77.2953 108.89 78.1391 109.294C79.4163 109.897 80.9345 109.63 81.9294 108.627L90.2347 100.334L99.6662 109.764L91.3593 118.067C90.3553 119.063 90.0883 120.583 90.6925 121.86C91.0953 122.704 91.4539 123.566 91.7652 124.448C92.2367 125.777 93.494 126.666 94.9055 126.666H106.665V140Z" fill="white"/>
<path d="M176.668 73.3338H168.054L167.885 72.9233L173.974 66.8336C175.276 65.532 175.276 63.4217 173.974 62.1201L164.548 52.6932C163.226 51.4435 161.157 51.4435 159.834 52.6932L153.744 58.783L153.334 58.6136V50.0001C153.334 48.1583 151.842 46.666 150.001 46.666H136.668C134.827 46.666 133.334 48.1599 133.334 50.0001V58.6136L132.925 58.783L126.834 52.6932C125.532 51.3917 123.424 51.3917 122.121 52.6932L112.695 62.1201C111.394 63.4217 111.394 65.532 112.695 66.8336L118.785 72.9233L118.614 73.3338H110C108.16 73.3338 106.668 74.8261 106.668 76.6663V89.9995C106.668 91.8412 108.16 93.3335 110 93.3335H118.614L118.785 93.744L112.695 99.8337C111.394 101.135 111.394 103.246 112.695 104.547L122.121 113.974C123.443 115.224 125.513 115.224 126.834 113.974L132.925 107.883L133.334 108.054V116.667C133.334 118.507 134.827 120 136.668 120H150.001C151.842 120 153.334 118.507 153.334 116.667V108.054L153.744 107.883L159.834 113.974C161.136 115.274 163.246 115.274 164.548 113.974L173.974 104.547C175.276 103.246 175.276 101.135 173.974 99.8337L167.885 93.744L168.054 93.3335H176.668C178.509 93.3335 180.002 91.8412 180.002 89.9995V76.6663C180.002 74.8261 178.509 73.3338 176.668 73.3338ZM173.335 86.6669H165.687C164.213 86.6669 162.915 87.6374 162.495 89.0504C162.106 90.3657 161.581 91.6382 160.931 92.8467C160.229 94.1437 160.463 95.7474 161.505 96.7896L166.905 102.19L162.192 106.903L156.792 101.503C155.748 100.461 154.144 100.229 152.849 100.931C151.64 101.581 150.368 102.104 149.051 102.493C147.638 102.914 146.669 104.213 146.667 105.687V113.333H140.001V105.687C140.001 104.213 139.03 102.914 137.617 102.493C136.302 102.104 135.029 101.581 133.821 100.931C132.524 100.229 130.92 100.461 129.878 101.503L124.478 106.903L119.765 102.19L125.165 96.7896C126.207 95.7474 126.439 94.1437 125.737 92.8467C125.087 91.6382 124.563 90.3657 124.174 89.0504C123.753 87.6374 122.455 86.6669 120.981 86.6669H113.335V80.0004H120.981C122.455 79.9988 123.753 79.0299 124.174 77.6169C124.563 76.3001 125.087 75.0291 125.737 73.8206C126.439 72.5236 126.207 70.9199 125.165 69.8762L119.765 64.4761L124.478 59.7626L129.878 65.1627C130.92 66.2049 132.524 66.4384 133.821 65.7365C135.029 65.0864 136.302 64.563 137.617 64.1724C139.03 63.7528 140.001 62.4543 140.001 60.9803V53.3326H146.667V60.9803C146.669 62.4543 147.638 63.7528 149.051 64.1724C150.368 64.563 151.639 65.0864 152.849 65.7365C154.144 66.4384 155.748 66.2049 156.792 65.1627L162.192 59.7626L166.905 64.4761L161.505 69.8762C160.463 70.9199 160.229 72.5236 160.931 73.8206C161.581 75.0275 162.106 76.3001 162.495 77.6169C162.915 79.0299 164.213 79.9988 165.687 80.0004H173.335V86.6669Z" fill="white"/>
<path d="M143.335 69.9998C135.971 69.9998 130.002 75.969 130.002 83.3329C130.002 90.6968 135.971 96.666 143.335 96.666C150.699 96.666 156.668 90.6968 156.668 83.3329C156.668 75.969 150.699 69.9998 143.335 69.9998ZM143.335 89.9995C139.653 89.9995 136.669 87.0148 136.669 83.3329C136.669 79.6509 139.653 76.6663 143.335 76.6663C147.017 76.6663 150.002 79.6509 150.002 83.3329C150.002 87.0148 147.017 89.9995 143.335 89.9995Z" fill="white"/>
</svg>
