<svg width="159" height="198" viewBox="0 0 159 198" fill="none" xmlns="http://www.w3.org/2000/svg">
<rect width="158.064" height="198" fill="black" fill-opacity="0"/>
<rect width="158.064" height="145.201" fill="black" fill-opacity="0"/>
<rect width="158.064" height="145.201" fill="black" fill-opacity="0"/>
<path d="M101.273 139.101H111.462V144.701H46.6019V139.101H56.7909H57.1683L57.2718 138.738L61.9742 122.238L62.1557 121.601H61.4933H16.4655C7.65367 121.59 0.510542 114.433 0.5 105.6V16.5004C0.510542 7.66724 7.65351 0.510561 16.4652 0.5H141.598C150.41 0.510561 157.553 7.6674 157.564 16.5007V105.6C157.553 114.433 150.41 121.59 141.598 121.601H96.5703H95.9078L96.0894 122.238L100.792 138.738L100.895 139.101H101.273ZM63.1595 138.464L62.9779 139.101H63.6403H94.4232H95.0856L94.9041 138.464L90.2017 121.964L90.0982 121.601H89.7208H68.3427H67.9653L67.8619 121.964L63.1595 138.464ZM6.58598 98.5005H6.08598V99.0005V105.601C6.08598 111.343 10.7317 116.001 16.465 116.001H141.599C147.332 116.001 151.978 111.343 151.978 105.601V99.0005V98.5005H151.478H6.58598ZM151.478 92.9004H151.978V92.4004V16.5001C151.978 10.7572 147.332 6.10003 141.599 6.10003H16.465C10.7317 6.10003 6.08598 10.7572 6.08598 16.5001V92.4004V92.9004H6.58598H151.478Z" fill="white" stroke="#294B87"/>
<rect width="98.7897" height="46.2002" fill="black" fill-opacity="0" transform="translate(9.87891 151.8)"/>
<rect width="98.7897" height="46.2002" fill="black" fill-opacity="0" transform="translate(9.87891 151.8)"/>
<path d="M102.083 191.9H102.583V191.4V158.4V157.9H102.083H16.4649H15.9649V158.4V191.4V191.9H16.4649H102.083ZM13.1719 152.3H105.376C106.917 152.3 108.169 153.552 108.169 155.1V194.7C108.169 196.247 106.917 197.5 105.376 197.5H13.1719C11.6305 197.5 10.3789 196.247 10.3789 194.7V155.1C10.3789 153.552 11.6305 152.3 13.1719 152.3Z" fill="white" stroke="#294B87"/>
<rect width="6.58598" height="6.60003" fill="black" fill-opacity="0" transform="translate(23.0507 178.202)"/>
<rect width="6.58598" height="6.60003" fill="black" fill-opacity="0" transform="translate(23.0507 178.202)"/>
<path d="M23.5507 184.302V178.702H29.1366V184.302H23.5507Z" fill="white" stroke="#294B87"/>
<rect width="6.58598" height="6.60003" fill="black" fill-opacity="0" transform="translate(23.0507 165)"/>
<rect width="6.58598" height="6.60003" fill="black" fill-opacity="0" transform="translate(23.0507 165)"/>
<path d="M23.5507 171.101V165.5H29.1366V171.101H23.5507Z" fill="white" stroke="#294B87"/>
<rect width="6.58598" height="6.60003" fill="black" fill-opacity="0" transform="translate(36.223 165)"/>
<rect width="6.58598" height="6.60003" fill="black" fill-opacity="0" transform="translate(36.223 165)"/>
<path d="M36.723 171.101V165.5H42.309V171.101H36.723Z" fill="white" stroke="#294B87"/>
<rect width="6.58598" height="6.60003" fill="black" fill-opacity="0" transform="translate(49.3949 165)"/>
<rect width="6.58598" height="6.60003" fill="black" fill-opacity="0" transform="translate(49.3949 165)"/>
<path d="M49.8949 171.101V165.5H55.4809V171.101H49.8949Z" fill="white" stroke="#294B87"/>
<rect width="6.58598" height="6.60003" fill="black" fill-opacity="0" transform="translate(75.7388 165)"/>
<rect width="6.58598" height="6.60003" fill="black" fill-opacity="0" transform="translate(75.7388 165)"/>
<path d="M76.2388 171.101V165.5H81.8248V171.101H76.2388Z" fill="white" stroke="#294B87"/>
<rect width="6.58598" height="6.60003" fill="black" fill-opacity="0" transform="translate(62.5668 165)"/>
<rect width="6.58598" height="6.60003" fill="black" fill-opacity="0" transform="translate(62.5668 165)"/>
<path d="M63.0668 171.101V165.5H68.6528V171.101H63.0668Z" fill="white" stroke="#294B87"/>
<rect width="6.58598" height="6.60003" fill="black" fill-opacity="0" transform="translate(88.9106 178.202)"/>
<rect width="6.58598" height="6.60003" fill="black" fill-opacity="0" transform="translate(88.9106 178.202)"/>
<path d="M89.4106 184.302V178.702H94.9966V184.302H89.4106Z" fill="white" stroke="#294B87"/>
<rect width="6.58598" height="6.60003" fill="black" fill-opacity="0" transform="translate(88.9106 165)"/>
<rect width="6.58598" height="6.60003" fill="black" fill-opacity="0" transform="translate(88.9106 165)"/>
<path d="M89.4106 171.101V165.5H94.9966V171.101H89.4106Z" fill="white" stroke="#294B87"/>
<rect width="46.1019" height="6.60003" fill="black" fill-opacity="0" transform="translate(36.223 178.202)"/>
<rect width="46.1019" height="6.60003" fill="black" fill-opacity="0" transform="translate(36.223 178.202)"/>
<path d="M36.723 184.302V178.702H81.8249V184.302H36.723Z" fill="white" stroke="#294B87"/>
<rect width="32.9299" height="46.2002" fill="black" fill-opacity="0" transform="translate(115.255 151.8)"/>
<rect width="32.9299" height="46.2002" fill="black" fill-opacity="0" transform="translate(115.255 151.8)"/>
<path d="M115.755 168.3C115.755 159.462 122.904 152.3 131.72 152.3C140.536 152.3 147.685 159.462 147.685 168.3V181.5C147.685 190.337 140.536 197.5 131.72 197.5C122.904 197.5 115.755 190.337 115.755 181.5V168.3ZM131.72 191.9C137.453 191.9 142.099 187.243 142.099 181.5V168.3C142.099 162.557 137.453 157.9 131.72 157.9C125.986 157.9 121.341 162.557 121.341 168.3V181.5C121.341 187.243 125.986 191.9 131.72 191.9Z" fill="white" stroke="#294B87"/>
<rect width="6.58598" height="6.60003" fill="black" fill-opacity="0" transform="translate(128.427 165)"/>
<rect width="6.58598" height="6.60003" fill="black" fill-opacity="0" transform="translate(128.427 165)"/>
<path d="M128.927 171.101V165.5H134.512V171.101H128.927Z" fill="white" stroke="#294B87"/>
<rect width="19.5133" height="47.9886" fill="black" fill-opacity="0" transform="translate(69.2529 28.8612)"/>
<rect width="19.5133" height="47.9886" fill="black" fill-opacity="0" transform="translate(69.2529 28.8612)"/>
<path d="M75.2386 76.2312L69.8708 74.692L82.7805 29.4797L88.1483 31.019L75.2386 76.2312Z" fill="white" stroke="#294B87"/>
<rect width="25.157" height="38.069" fill="black" fill-opacity="0" transform="translate(36.2245 33.7648)"/>
<rect width="25.157" height="38.069" fill="black" fill-opacity="0" transform="translate(36.2245 33.7648)"/>
<path d="M57.1023 71.1288L37.729 54.9499L37.7288 54.9497C37.6003 54.8426 37.4813 54.7231 37.373 54.5931C36.3843 53.4049 36.5442 51.6389 37.7292 50.6485L57.1023 34.4697L60.678 38.7697L44.3391 52.4155L43.8796 52.7992L44.3391 53.183L60.678 66.8288L57.1023 71.1288Z" fill="white" stroke="#294B87"/>
<rect width="25.157" height="38.069" fill="black" fill-opacity="0" transform="translate(101 34)"/>
<path d="M105.279 34.705L124.652 50.8839L124.653 50.884C124.781 50.9912 124.9 51.1107 125.008 51.2406C125.997 52.4289 125.837 54.1948 124.652 55.1853L105.279 71.364L101.703 67.0641L118.042 53.4183L118.502 53.0345L118.042 52.6507L101.703 39.0049L105.279 34.705Z" fill="white" stroke="#294B87"/>
</svg>
