<svg width="32" height="30" viewBox="0 0 32 30" fill="none" xmlns="http://www.w3.org/2000/svg">
<path d="M15.9632 0C7.62465 0 0.869995 6.70807 0.869995 15C0.869995 18.2609 1.94142 21.3354 3.75819 23.8043L1.84826 29.3944L7.67124 27.5311C10.047 29.1149 12.9352 30 16.0097 30C24.3483 30 31.1495 23.2919 31.1495 15C31.1029 6.70807 24.3017 0 15.9632 0ZM24.8141 21.1957C24.4414 22.2205 22.6247 23.1988 21.8327 23.2919C21.0408 23.3851 21.0408 23.9441 16.5222 22.2205C12.0501 20.4503 9.2085 15.9317 8.97559 15.6056C8.74267 15.3261 7.15881 13.2298 7.15881 11.087C7.15881 8.9441 8.27683 7.87267 8.69608 7.45341C9.11534 7.03416 9.58117 6.89441 9.86068 6.89441C10.1402 6.89441 10.4663 6.94099 10.6992 6.94099C10.9787 6.94099 11.3048 6.80124 11.6774 7.68633C12.0501 8.57143 12.9352 10.7143 13.0284 10.9472C13.1215 11.1801 13.2147 11.413 13.075 11.6925C12.9352 11.972 12.842 12.1584 12.6557 12.4379C12.4228 12.6708 12.1899 12.9969 12.0035 13.1832C11.7706 13.4161 11.5377 13.6491 11.8172 14.0683C12.0967 14.4876 12.9818 15.9317 14.2861 17.0963C15.9632 18.587 17.4073 19.0528 17.8265 19.2857C18.2458 19.5186 18.5253 19.4721 18.7582 19.1925C19.0377 18.913 19.8762 17.9348 20.1557 17.4689C20.4352 17.0497 20.7613 17.0963 21.134 17.236C21.5532 17.3758 23.6961 18.4472 24.1619 18.6801C24.5812 18.913 24.9073 19.0062 25.0004 19.1925C25.1402 19.2857 25.1402 20.1708 24.8141 21.1957Z" fill="#FFD933"/>
</svg>
